<svg xmlns="http://www.w3.org/2000/svg" width="102.5" height="80"><g data-name="Group 87"><path data-name="Path 187" d="m49.878 38.014 10.625-10.625 1.473 1.473L51.35 39.487z" fill="#466089"/></g><g data-name="Group 89"><g data-name="Group 88"><path data-name="Path 188" d="M55.416 2.917 47.083 41.25H83.75V2.917zm24.167 34.167h-27.33l6.522-30h20.808z" fill="#6e83b7"/></g></g><g data-name="Group 90"><path data-name="Path 189" d="M83.75 33.125v3.958H40l-4.583 4.584v23.75H102.5V33.125z" fill="#ffe352"/></g><g data-name="Group 91" transform="translate(73.043 50.783)"><circle data-name="Ellipse 8" cx="14.5" cy="14.5" r="14.5" transform="translate(.113 .217)" fill="#6e83b7"/></g><g data-name="Group 92" transform="translate(80 57.739)"><circle data-name="Ellipse 9" cx="7.5" cy="7.5" r="7.5" transform="translate(.156 .261)" fill="#466089"/></g><g data-name="Group 99"><g data-name="Group 93"><path data-name="Path 190" d="m43.414 50.875 6.482 6.482a3.333 3.333 0 0 0 4.714-4.714l-6.482-6.482z" fill="#466089"/></g><g data-name="Group 94"><path data-name="Path 191" d="M37.274 35.306 26.667 24.699v9.428l5.892 5.893z" fill="#466089"/></g><g data-name="Group 95"><path data-name="Path 192" d="m33.434 39.135 2.947-2.947 10.854 10.855-2.946 2.947z" fill="#d3d3d3"/></g><g data-name="Group 96" transform="translate(20.87 25.043)"><circle data-name="Ellipse 10" cx="5.5" cy="5.5" r="5.5" transform="translate(.287 -.043)" fill="#6e83b7"/></g><g data-name="Group 97"><path data-name="Path 193" d="M6.25 52.916H0l2.5-4.583h3.75z" fill="#ffb236"/></g><g data-name="Group 98"><path data-name="Path 194" d="M3.75 52.916h17.916l5-10V18.333l-5-5h-6.25v23.75h-3.75z" fill="#ffe352"/></g></g><g data-name="Group 100" transform="translate(29.217 50.783)"><circle data-name="Ellipse 11" cx="14.5" cy="14.5" r="14.5" transform="translate(-.061 .217)" fill="#6e83b7"/></g><g data-name="Group 101" transform="translate(36.174 57.739)"><circle data-name="Ellipse 12" cx="7.5" cy="7.5" r="7.5" transform="translate(-.018 .261)" fill="#466089"/></g><g data-name="Group 102"><path data-name="Path 195" d="M79.583 11.875h-5.417l-3.958 25.208h9.375z" fill="#466089"/></g><g data-name="Group 103"><path data-name="Path 196" d="M89.583 24.792h7.083v4.167h-7.083z" fill="#466089"/></g><g data-name="Group 104"><path data-name="Path 197" d="M83.75 28.958h18.75v4.167H83.75z" fill="#ffb236"/></g><g data-name="Group 105"><path data-name="Path 198" d="M99.888 2.946 96.942 0l-4.68 4.68a4.167 4.167 0 0 0-1.22 2.946v17.166h4.167V7.626z" fill="#6e83b7"/></g><g data-name="Group 106" transform="translate(58.435 25.739)"><ellipse data-name="Ellipse 13" cx="3" cy="2.5" rx="3" ry="2.5" transform="translate(-.279 .261)" fill="#ffb0aa"/></g></svg>