<svg width="24" height="24" viewBox="0 0 24 24" fill="none" xmlns="http://www.w3.org/2000/svg">
<style>
#rotate,#opacity_1,#opacity_2,#opacity_3{transform-origin:center;transform-box:fill-box}#rotate{animation:rotation 10s linear infinite}#opacity_1,#opacity_2,#opacity_3{animation:opacity 1s linear infinite}@keyframes rotation{0%{transform:rotate(0deg)}100%{transform:rotate(3600deg)}}@keyframes opacity{0%{opacity:1}100%{opacity:.5}}
</style>
<g id="calendar-add-bulk 1">
<g id="vuesax/bulk/calendar-add">
<g id="calendar-add">
<path id="Vector" d="M16.75 3.56V2C16.75 1.80109 16.671 1.61032 16.5303 1.46967C16.3897 1.32902 16.1989 1.25 16 1.25C15.8011 1.25 15.6103 1.32902 15.4697 1.46967C15.329 1.61032 15.25 1.80109 15.25 2V3.5H8.75V2C8.75 1.80109 8.67098 1.61032 8.53033 1.46967C8.38968 1.32902 8.19891 1.25 8 1.25C7.80109 1.25 7.61032 1.32902 7.46967 1.46967C7.32902 1.61032 7.25 1.80109 7.25 2V3.56C6.12944 3.56976 5.05812 4.0219 4.2694 4.81793C3.48067 5.61396 3.03843 6.6894 3.039 7.81C3.0349 7.87814 3.0448 7.9464 3.06809 8.01057C3.09138 8.07474 3.12756 8.13346 3.1744 8.18311C3.22125 8.23277 3.27776 8.2723 3.34047 8.29928C3.40317 8.32627 3.47074 8.34012 3.539 8.34H20.459C20.5273 8.34012 20.5948 8.32627 20.6575 8.29928C20.7202 8.2723 20.7768 8.23277 20.8236 8.18311C20.8704 8.13346 20.9066 8.07474 20.9299 8.01057C20.9532 7.9464 20.9631 7.87814 20.959 7.81C20.9596 6.68974 20.5176 5.6146 19.7293 4.81863C18.941 4.02265 17.8702 3.57028 16.75 3.56V3.56Z" fill="#4E008C"/>
<path id="Vector_2" opacity="0.4" d="M21 10.84V12.58C21.0011 12.7231 20.9709 12.8647 20.9117 12.9949C20.8525 13.1252 20.7656 13.2409 20.6571 13.3342C20.5486 13.4275 20.4211 13.496 20.2835 13.535C20.1458 13.574 20.0013 13.5825 19.86 13.56C19.5753 13.5164 19.288 13.493 19 13.49C17.5421 13.4926 16.1447 14.073 15.1138 15.1038C14.083 16.1347 13.5026 17.5321 13.5 18.99C13.5444 19.5645 13.6689 20.13 13.87 20.67C13.9209 20.8206 13.9351 20.9813 13.9115 21.1385C13.8879 21.2957 13.8271 21.4451 13.7342 21.5741C13.6414 21.7032 13.519 21.8083 13.3774 21.8806C13.2358 21.9529 13.079 21.9904 12.92 21.99H8C4.5 21.99 3 19.99 3 16.99V10.83C3 10.5648 3.10536 10.3104 3.29289 10.1229C3.48043 9.93536 3.73478 9.83 4 9.83H20C20.2655 9.83469 20.5186 9.94292 20.7054 10.1316C20.8923 10.3203 20.998 10.5745 21 10.84V10.84Z" fill="#4E008C"/>
<path id="opacity_3" d="M8.5 14.999C8.23527 14.9951 7.98174 14.8916 7.79 14.709C7.60743 14.5173 7.50388 14.2637 7.5 13.999C7.50413 13.7346 7.60767 13.4815 7.79 13.29C7.9079 13.1738 8.05257 13.0884 8.21127 13.0413C8.36996 12.9942 8.53781 12.9869 8.7 13.02C8.76266 13.0309 8.82334 13.0511 8.88 13.08C8.94374 13.1019 9.00427 13.1321 9.06 13.17L9.21 13.29C9.39233 13.4815 9.49587 13.7346 9.5 13.999C9.49612 14.2637 9.39257 14.5173 9.21 14.709L9.06 14.829C9.00427 14.8669 8.94374 14.8971 8.88 14.919C8.82334 14.9479 8.76266 14.9681 8.7 14.979C8.63386 14.9901 8.56704 14.9968 8.5 14.999V14.999Z" fill="#4E008C"/>
<path id="opacity_2" d="M12 15C11.7357 14.9969 11.4822 14.8945 11.29 14.713C11.1067 14.5205 11.0031 14.2658 11 14C11.0041 13.7356 11.1077 13.4825 11.29 13.291C11.4834 13.1126 11.7369 13.0135 12 13.0135C12.2631 13.0135 12.5166 13.1126 12.71 13.291C12.8923 13.4825 12.9959 13.7356 13 14C12.9961 14.2647 12.8926 14.5183 12.71 14.71C12.5183 14.8926 12.2647 14.9961 12 15Z" fill="#4E008C"/>
<path id="opacity_1" d="M8.5 18.501C8.23527 18.4971 7.98174 18.3936 7.79 18.211C7.60743 18.0193 7.50388 17.7657 7.5 17.501C7.50363 17.2359 7.6072 16.982 7.79 16.79C7.88561 16.6996 7.99762 16.6283 8.12 16.58C8.30211 16.5034 8.50282 16.4825 8.69681 16.5199C8.8908 16.5572 9.06938 16.6512 9.21 16.79C9.3928 16.982 9.49637 17.2359 9.5 17.501C9.49612 17.7657 9.39257 18.0193 9.21 18.211C9.01826 18.3936 8.76473 18.4971 8.5 18.501Z" fill="#4E008C"/>
<path id="rotate" d="M21.83 16.17C21.2704 15.611 20.5577 15.2305 19.7819 15.0765C19.0061 14.9226 18.202 15.002 17.4714 15.3049C16.7407 15.6078 16.1163 16.1205 15.677 16.7782C15.2376 17.4359 15.0031 18.2091 15.0031 19C15.0031 19.7909 15.2376 20.5641 15.677 21.2218C16.1163 21.8795 16.7407 22.3922 17.4714 22.6951C18.202 22.998 19.0061 23.0774 19.7819 22.9235C20.5577 22.7695 21.2704 22.389 21.83 21.83C22.5792 21.0787 22.9998 20.061 22.9998 19C22.9998 17.939 22.5792 16.9213 21.83 16.17V16.17ZM21.07 19.56C21.0016 19.6312 20.9192 19.6876 20.828 19.7254C20.7368 19.7633 20.6387 19.7819 20.54 19.78H19.8V20.56C19.7997 20.7588 19.7206 20.9494 19.58 21.09C19.4394 21.2306 19.2488 21.3097 19.05 21.31C18.8515 21.3087 18.6615 21.2293 18.5211 21.0889C18.3807 20.9485 18.3013 20.7585 18.3 20.56V19.78H17.55C17.3511 19.78 17.1603 19.701 17.0197 19.5603C16.879 19.4197 16.8 19.2289 16.8 19.03C16.8 18.8311 16.879 18.6403 17.0197 18.4997C17.1603 18.359 17.3511 18.28 17.55 18.28H18.3V17.57C18.3 17.3711 18.379 17.1803 18.5197 17.0397C18.6603 16.899 18.8511 16.82 19.05 16.82C19.2489 16.82 19.4397 16.899 19.5803 17.0397C19.721 17.1803 19.8 17.3711 19.8 17.57V18.28H20.54C20.6385 18.2799 20.7361 18.2992 20.8272 18.3368C20.9182 18.3745 21.001 18.4297 21.0706 18.4994C21.1403 18.569 21.1955 18.6518 21.2332 18.7428C21.2708 18.8339 21.2901 18.9315 21.29 19.03C21.2919 19.1287 21.2733 19.2268 21.2354 19.318C21.1976 19.4092 21.1412 19.4916 21.07 19.56V19.56Z" fill="#4E008C"/>
</g>
</g>
</g>
</svg>
