<svg xmlns="http://www.w3.org/2000/svg" width="72.235" height="80"><g transform="translate(-24.849)"><path data-name="Path 247" d="M43.712 59.333a1.189 1.189 0 0 1-1.189-1.189v-6.84a1.189 1.189 0 0 1 2.378 0v6.84a1.189 1.189 0 0 1-1.189 1.189z" fill="#30569f"/><g data-name="Group 116" fill="#30569f"><path data-name="Path 248" d="M36.326 80a1.19 1.19 0 0 1-1.157-1.469l4.33-17.944a1.19 1.19 0 0 1 2.312.558l-4.33 17.944a1.19 1.19 0 0 1-1.155.911z"/><path data-name="Path 249" d="M51.093 80a1.19 1.19 0 0 1-1.155-.911l-4.33-17.944a1.19 1.19 0 1 1 2.312-.558l4.33 17.944A1.191 1.191 0 0 1 51.093 80z"/></g><path data-name="Path 250" d="M77.348 49.681a1.189 1.189 0 0 1-1.189-1.189v-15.8a1.189 1.189 0 1 1 2.378 0v15.8a1.189 1.189 0 0 1-1.189 1.189z" fill="#75cff9"/><path data-name="Path 251" d="m50.576 26.981-2.613-3.269a1.1 1.1 0 0 0-.86-.414h-6.78a1.1 1.1 0 0 0-.86.414l-2.613 3.269h-5.1v19.574h22.643a1.278 1.278 0 0 0 1.278-1.278V28.258a1.278 1.278 0 0 0-1.278-1.278z" fill="#30569f"/><path data-name="Path 252" d="M54.393 43.581H31.754v2.973h22.639a1.278 1.278 0 0 0 1.278-1.278v-2.973a1.278 1.278 0 0 1-1.278 1.278z" fill="#26447e"/><circle data-name="Ellipse 14" cx="6.072" cy="6.072" r="6.072" transform="translate(37.64 30.695)" fill="#5392f9"/><path data-name="Path 253" d="M43.712 44.028a7.261 7.261 0 1 1 7.261-7.261 7.269 7.269 0 0 1-7.261 7.261zm0-12.143a4.882 4.882 0 1 0 4.882 4.883 4.888 4.888 0 0 0-4.882-4.883z" fill="#ddebfd"/><path data-name="Path 254" d="M26.027 46.553h5.823a1.178 1.178 0 0 0 1.178-1.178V28.158a1.178 1.178 0 0 0-1.178-1.178h-5.823a1.178 1.178 0 0 0-1.178 1.178v17.218a1.178 1.178 0 0 0 1.178 1.178z" fill="#75cff9"/><path data-name="Path 255" d="M31.849 43.581h-5.822a1.178 1.178 0 0 1-1.178-1.178v2.973a1.178 1.178 0 0 0 1.178 1.178h5.823a1.178 1.178 0 0 0 1.178-1.178v-2.973a1.178 1.178 0 0 1-1.179 1.178z" fill="#5fa7ee"/><path data-name="Path 256" d="M47.319 51.308h-7.213a.441.441 0 0 1-.442-.442v-4.308h8.1v4.308a.442.442 0 0 1-.445.442z" fill="#bed9fd"/><path data-name="Path 257" d="M86.558 0h-18.42a1.316 1.316 0 0 0-1.14.658l-9.21 15.952a1.316 1.316 0 0 0 0 1.316l9.21 15.952a1.316 1.316 0 0 0 1.14.658h18.419a1.316 1.316 0 0 0 1.14-.658l9.21-15.952a1.316 1.316 0 0 0 0-1.316L87.698.658A1.316 1.316 0 0 0 86.558 0z" fill="#75cff9"/><path data-name="Path 258" d="m96.908 16.61-1.649-2.857a1.324 1.324 0 0 1-.168.813l-9.28 16.069a1.326 1.326 0 0 1-1.148.663H66.104a1.322 1.322 0 0 1-.714-.212L67 33.874a1.316 1.316 0 0 0 1.14.658h18.419a1.316 1.316 0 0 0 1.14-.658l9.21-15.952a1.316 1.316 0 0 0-.001-1.312z" fill="#5fa7ee"/><path data-name="Path 259" d="m96.907 16.61-.307-.532H79.408l8.6-14.888-.307-.531A1.316 1.316 0 0 0 86.558 0h-.614l-8.6 14.89L68.751 0h-.612a1.316 1.316 0 0 0-1.14.658l-.307.532 8.595 14.887h-17.19l-.307.532a1.316 1.316 0 0 0 0 1.316l.306.53H75.29l-8.6 14.889.307.532a1.316 1.316 0 0 0 1.14.658h.613l8.6-14.888 8.6 14.888h.614a1.316 1.316 0 0 0 1.14-.658l.307-.531-8.6-14.89h17.194l.306-.53a1.316 1.316 0 0 0 0-1.316z" fill="#5fa7ee"/><g data-name="Group 117" fill="#457aab"><path data-name="Path 260" d="m94.218 16.077-1.373 2.379h3.757l.306-.53a1.316 1.316 0 0 0 0-1.316l-.307-.532z"/><path data-name="Path 261" d="M70.619 31.301h-2.747l-1.18 2.044.307.532c.505.875 1.483.613 1.752.658z"/><path data-name="Path 262" d="m88.004 33.346-1.878-3.254-.315.546a1.326 1.326 0 0 1-1.148.663h-.585l1.867 3.234h.614c1.025 0 1.283-1.004 1.445-1.189z"/></g><circle data-name="Ellipse 15" cx="4.758" cy="4.758" r="4.758" transform="translate(72.591 12.51)" fill="#f4daa7"/><path data-name="Path 263" d="M74.424 48.378v30.988a.634.634 0 0 0 .634.634h4.581a.634.634 0 0 0 .634-.634V48.378a.634.634 0 0 0-.634-.634h-4.581a.634.634 0 0 0-.634.634z" fill="#30569f"/><path data-name="Path 264" d="M50.043 63.59H37.38a1.514 1.514 0 0 1-1.514-1.514v-2.418a1.514 1.514 0 0 1 1.514-1.514h12.663a1.514 1.514 0 0 1 1.514 1.514v2.418a1.514 1.514 0 0 1-1.514 1.514z" fill="#75cff9"/><path data-name="Path 265" d="M50.044 58.143h-4.048a1.514 1.514 0 0 1 1.514 1.514v2.418a1.514 1.514 0 0 1-1.514 1.514h4.048a1.514 1.514 0 0 0 1.514-1.514v-2.418a1.514 1.514 0 0 0-1.514-1.514z" fill="#5fa7ee"/></g></svg>