<svg xmlns="http://www.w3.org/2000/svg" width="70" height="70" viewBox="0 0 70 70">
  <g id="Group_4496" data-name="Group 4496" transform="translate(-138.666 -13)">
    <g id="slash_bulk" data-name="slash/bulk" transform="translate(138.666 13)">
      <g id="vuesax_bulk_slash" data-name="vuesax/bulk/slash">
        <g id="slash">
          <path id="Vector" d="M52.59,10.59l-42,42a.527.527,0,0,1-.15.12,26.034,26.034,0,0,1-3.15-3.15A29.71,29.71,0,0,1,0,30,30.011,30.011,0,0,1,30,0,29.71,29.71,0,0,1,49.56,7.29a26.034,26.034,0,0,1,3.15,3.15A.527.527,0,0,1,52.59,10.59Z" transform="translate(6 6)" fill="#ec3737" opacity="0.4"/>
          <path id="Vector-2" data-name="Vector" d="M46.2,16.2a30.011,30.011,0,0,1-30,30A29.444,29.444,0,0,1,0,41.4L41.4,0A29.444,29.444,0,0,1,46.2,16.2Z" transform="translate(17.8 17.8)" fill="#ec3737" opacity="0.4"/>
          <path id="Vector-3" data-name="Vector" d="M57.318.652a2.24,2.24,0,0,0-3.161,0L.652,54.186a2.24,2.24,0,0,0,0,3.161,2.294,2.294,0,0,0,1.566.638,2.2,2.2,0,0,0,1.566-.667L57.318,3.784A2.156,2.156,0,0,0,57.318.652Z" transform="translate(6.015 6.015)" fill="#ec3737"/>
          <path id="Vector-4" data-name="Vector" d="M0,0H70V70H0Z" fill="none" opacity="0"/>
        </g>
      </g>
    </g>
  </g>
</svg>
