<svg xmlns="http://www.w3.org/2000/svg" width="103.568" height="80"><g transform="translate(0 -56.49)"><path data-name="Path 266" d="M102.122 100.952a15.169 15.169 0 0 0-3.172-8.464c-4.233-5.512-5.059-9.888-5.059-9.888a120.894 120.894 0 0 0-8.451-18.2 14.593 14.593 0 0 0-10.691-7.042c-8.962-1.159-36.971-1.159-45.933 0A14.611 14.611 0 0 0 18.124 64.4a121.234 121.234 0 0 0-8.451 18.2s-.825 4.376-5.059 9.888a15.165 15.165 0 0 0-3.165 8.464c-.32 6.671 1.612 8.137 3.34 23.232a2.347 2.347 0 0 0 2.337 2.081h89.323a2.35 2.35 0 0 0 2.337-2.081c.485-4.233 1.926-12.82 1.926-12.82a31.439 31.439 0 0 0 1.41-10.412z" fill="#e95353"/><path data-name="Path 267" d="M92.011 82.251a130.2 130.2 0 0 0-7.955-16.856 13.162 13.162 0 0 0-9.509-6.392c-8.982-1.191-36.605-1.181-45.522 0a13.163 13.163 0 0 0-9.509 6.392 132.475 132.475 0 0 0-7.989 16.856 513.2 513.2 0 0 0 80.484 0z" fill="#168de2"/><path data-name="Path 268" d="M88.208 89.837a14.786 14.786 0 0 0-2.771 1.217 34.056 34.056 0 0 1-4.492 2.152c-2.576.978-3.013 2.437-3.013 2.437-.078.1-.152.2-.223.3a4.118 4.118 0 0 0 4.078 6.276 49.749 49.749 0 0 0 11.241-3 4.029 4.029 0 0 0 2.447-2.745c.029-.12.055-.239.078-.356a5.657 5.657 0 0 0-7.345-6.281z" fill="#fff"/><path data-name="Path 269" d="M93.565 113.099h-5.577a.943.943 0 0 0-.667 1.609l5.577 5.577a.943.943 0 0 0 1.609-.667v-5.576a.941.941 0 0 0-.942-.943z" fill="#ffe21f"/><path data-name="Path 270" d="M98.785 124.177a2.354 2.354 0 0 1-2.34 2.088H85.719v6.227a3.994 3.994 0 0 0 3.994 3.994h6.739a3.994 3.994 0 0 0 3.994-3.994v-19.494c-.447 2.699-1.308 8.095-1.661 11.179z" fill="#454545"/><path data-name="Path 271" d="M103.491 77.891a3.216 3.216 0 0 0-3.172-2.434h-2.692a3.123 3.123 0 0 0-3.123 3.123v1.919h-1.427l.82 1.942h3.14a11.312 11.312 0 0 0 4.709-1.026 3.121 3.121 0 0 0 1.745-3.524z" fill="#ed6262"/><circle data-name="Ellipse 16" cx="3.926" cy="3.926" r="3.926" transform="translate(86.049 90.941)" fill="#ffbd49"/><circle data-name="Ellipse 17" cx="2.884" cy="2.884" r="2.884" transform="translate(79.194 95.081)" fill="#ffdb6f"/><path data-name="Path 272" d="m74.604 97.968-4.509 7.852H33.471l-4.509-7.852z" fill="#6f6f6f"/><path data-name="Path 273" d="M25.855 95.948c-.068-.1-.142-.2-.223-.3 0 0-.437-1.46-3.013-2.437a34.247 34.247 0 0 1-4.492-2.152 14.877 14.877 0 0 0-2.771-1.217 5.661 5.661 0 0 0-7.347 6.282c.023.12.049.236.074.356a4.029 4.029 0 0 0 2.447 2.745 49.736 49.736 0 0 0 11.244 3 4.119 4.119 0 0 0 4.081-6.277z" fill="#fff"/><path data-name="Path 274" d="M15.58 113.099h-5.577a.941.941 0 0 0-.942.942v5.577a.943.943 0 0 0 1.609.667l5.577-5.577a.943.943 0 0 0-.667-1.609z" fill="#ffe21f"/><path data-name="Path 275" d="M88.913 122.831c-5.806-10.046-12.483-9.732-12.483-9.732h-49.3s-6.674-.314-12.483 9.732H4.614l.123 1.295a2.354 2.354 0 0 0 2.346 2.139h89.4a2.354 2.354 0 0 0 2.347-2.139l.123-1.295z" fill="#777"/><path data-name="Path 276" d="M7.122 126.269a2.356 2.356 0 0 1-2.34-2.088c-.353-3.084-1.217-8.483-1.657-11.179v19.494a3.994 3.994 0 0 0 3.994 3.994h6.738a3.994 3.994 0 0 0 3.994-3.994v-6.227H7.122z" fill="#454545"/><path data-name="Path 277" d="M9.061 80.499V78.58a3.122 3.122 0 0 0-3.12-3.123H3.248a3.217 3.217 0 0 0-3.172 2.434 3.121 3.121 0 0 0 1.748 3.525 11.319 11.319 0 0 0 4.709 1.025h3.14l.819-1.945H9.061z" fill="#ed6262"/><circle data-name="Ellipse 18" cx="3.926" cy="3.926" r="3.926" transform="translate(9.663 90.941)" fill="#ffbd49"/><circle data-name="Ellipse 19" cx="2.884" cy="2.884" r="2.884" transform="translate(18.609 95.081)" fill="#ffdb6f"/><g data-name="Group 118" fill="#6f6f6f"><path data-name="Path 278" d="M72.657 115.846H30.914a1.181 1.181 0 1 0 0 2.363h41.742a1.181 1.181 0 0 0 0-2.363z"/><path data-name="Path 279" d="M72.657 120.562H30.914a1.181 1.181 0 1 0 0 2.363h41.742a1.181 1.181 0 0 0 0-2.363z"/></g><path data-name="Path 280" d="M87.635 72.243v.4a2.859 2.859 0 0 1-3 2.864 2.99 2.99 0 0 1-2.7-3.029v-5.802a2.4 2.4 0 0 0-2.508-2.376h-.1a2.4 2.4 0 0 0-2.508 2.376v5.253a2.86 2.86 0 0 1-3.029 2.832 2.959 2.959 0 0 1-2.7-3v-4.564a2.536 2.536 0 0 0-2.541-2.508h-.194a2.391 2.391 0 0 0-2.379 2.379v5.939a2.888 2.888 0 0 1-3.029 2.864 2.963 2.963 0 0 1-2.668-3.029V64.88a2.271 2.271 0 0 0-2.411-2.246h-.194a2.4 2.4 0 0 0-2.408 2.379v8.14a2.85 2.85 0 0 1-5.7.1v-6.835a2.992 2.992 0 0 0-2.7-3.029 2.861 2.861 0 0 0-3 2.864l-.032 6.311a2.859 2.859 0 0 1-3 2.864 2.966 2.966 0 0 1-2.686-2.91v-7.405a2.966 2.966 0 0 0-2.693-3 2.866 2.866 0 0 0-3.007 2.858v7.758a2.881 2.881 0 0 1-3.013 2.79 2.963 2.963 0 0 1-2.67-3.029v-5.81a2.424 2.424 0 0 0-2.541-2.376h-.065a2.409 2.409 0 0 0-2.541 2.376v5.249a2.832 2.832 0 0 1-3 2.832 2.9 2.9 0 0 1-2.654-2.612c-1.505 3.117-3 6.492-4.447 10.1a512.388 512.388 0 0 0 80.484 0q-2.159-5.424-4.366-10.006z" fill="#3aa2eb"/></g></svg>