<svg width="24" height="24" viewBox="0 0 24 24" fill="none" xmlns="http://www.w3.org/2000/svg">
<style>
#tag{transform-origin:center;transform-box:fill-box;animation:translateY 1s linear infinite}@keyframes translateY{0%,100%{transform:translateY(0px)}50%{transform:translateY(-2px)}}
</style>
<g id="crown 1">
<g id="vuesax/bulk/crown">
<g id="crown">
<path id="Vector" d="M17 22H7C6.80149 21.9987 6.61149 21.9193 6.47112 21.7789C6.33075 21.6385 6.25131 21.4485 6.25 21.25C6.25131 21.0515 6.33075 20.8615 6.47112 20.7211C6.61149 20.5807 6.80149 20.5013 7 20.5H17C17.1985 20.5013 17.3885 20.5807 17.5289 20.7211C17.6693 20.8615 17.7487 21.0515 17.75 21.25C17.7487 21.4485 17.6693 21.6385 17.5289 21.7789C17.3885 21.9193 17.1985 21.9987 17 22V22Z" fill="#BC8B46"/>
<g id="tag">
<path id="Vector_2" opacity="0.4" d="M16.768 18.98H7.23C7.02469 18.9791 6.82458 18.9153 6.65655 18.7973C6.48852 18.6794 6.36061 18.5128 6.29 18.32L2.13 6.671C2.05923 6.47088 2.05397 6.25342 2.11499 6.05011C2.17602 5.84681 2.30015 5.66819 2.46943 5.54011C2.63871 5.41204 2.84435 5.34116 3.05659 5.33772C3.26883 5.33428 3.47666 5.39847 3.65 5.521L7.65 8.381C7.7751 8.46928 7.91869 8.52788 8.06985 8.55232C8.221 8.57677 8.37574 8.56642 8.5223 8.52207C8.66885 8.47771 8.80336 8.40053 8.9156 8.29637C9.02783 8.19222 9.11484 8.06384 9.17 7.921L11.06 2.881C11.132 2.69127 11.26 2.52792 11.427 2.41265C11.594 2.29738 11.7921 2.23565 11.995 2.23565C12.1979 2.23565 12.396 2.29738 12.563 2.41265C12.73 2.52792 12.858 2.69127 12.93 2.881L14.82 7.921C14.874 8.06476 14.9604 8.19414 15.0725 8.29912C15.1846 8.40409 15.3194 8.48184 15.4664 8.52632C15.6134 8.57081 15.7687 8.58084 15.9202 8.55564C16.0717 8.53044 16.2153 8.47068 16.34 8.381L20.34 5.521C20.5133 5.39847 20.7212 5.33428 20.9334 5.33772C21.1456 5.34116 21.3513 5.41204 21.5206 5.54011C21.6898 5.66819 21.814 5.84681 21.875 6.05011C21.936 6.25342 21.9308 6.47088 21.86 6.671L17.7 18.321C17.6326 18.5142 17.5065 18.6815 17.3395 18.7996C17.1724 18.9178 16.9726 18.9808 16.768 18.98V18.98Z" fill="#BC8B46"/>
<path id="Vector_3" d="M14.5 14.75H9.5C9.30149 14.7487 9.11149 14.6693 8.97112 14.5289C8.83075 14.3885 8.75131 14.1985 8.75 14C8.75131 13.8015 8.83075 13.6115 8.97112 13.4711C9.11149 13.3307 9.30149 13.2513 9.5 13.25H14.5C14.6985 13.2513 14.8885 13.3307 15.0289 13.4711C15.1693 13.6115 15.2487 13.8015 15.25 14C15.2487 14.1985 15.1693 14.3885 15.0289 14.5289C14.8885 14.6693 14.6985 14.7487 14.5 14.75V14.75Z" fill="#BC8B46"/>
</g>
</g>
</g>
</g>
</svg>
