<svg xmlns="http://www.w3.org/2000/svg" width="22" height="22" viewBox="0 0 22 22">
  <g id="Group_4286" data-name="Group 4286" transform="translate(-337 -26)">
    <g id="location_twotone" data-name="location/twotone" transform="translate(337 26)">
      <g id="location">
        <g id="location-2" data-name="location">
          <path id="Vector" d="M6.24,3.12A3.12,3.12,0,1,1,3.12,0,3.12,3.12,0,0,1,6.24,3.12Z" transform="translate(7.88 6.38)" fill="none" stroke="#bc8b46" stroke-width="1.5" opacity="0.4"/>
          <path id="Vector-2" data-name="Vector" d="M.215,5.841C1.956-1.953,13.3-1.944,15.031,5.85c1.017,4.572-1.777,8.442-4.226,10.836a4.533,4.533,0,0,1-6.374,0C1.991,14.292-.8,10.413.215,5.841Z" transform="translate(3.377 2)" fill="none" stroke="#bc8b46" stroke-width="1.5"/>
          <path id="Vector-3" data-name="Vector" d="M0,0H22V22H0Z" transform="translate(22 22) rotate(180)" fill="none" opacity="0"/>
        </g>
      </g>
    </g>
  </g>
</svg>
