<svg id="dollar-circle_bulk" data-name="dollar-circle/bulk" xmlns="http://www.w3.org/2000/svg" width="24" height="24" viewBox="0 0 24 24">
  <g id="vuesax_bulk_dollar-circle" data-name="vuesax/bulk/dollar-circle">
    <g id="dollar-circle">
      <path id="Vector" d="M20,10A10,10,0,1,1,10,0,10,10,0,0,1,20,10Z" transform="translate(2 1.9)" fill="#fff" opacity="0.4"/>
      <path id="Vector-2" data-name="Vector" d="M6.35,6.75,4.84,6.22V2.83H5.2A1.531,1.531,0,0,1,6.67,4.41a.75.75,0,0,0,1.5,0A3.027,3.027,0,0,0,5.2,1.33H4.84V.75a.75.75,0,0,0-1.5,0v.58H2.69A2.743,2.743,0,0,0,0,4.11,2.5,2.5,0,0,0,1.83,6.75l1.51.53v3.38H2.98A1.531,1.531,0,0,1,1.51,9.08a.755.755,0,0,0-.75-.75.755.755,0,0,0-.75.75,3.027,3.027,0,0,0,2.97,3.08h.36v.59a.75.75,0,0,0,1.5,0v-.58h.65A2.743,2.743,0,0,0,8.18,9.39,2.5,2.5,0,0,0,6.35,6.75ZM2.33,5.34c-.51-.18-.82-.35-.82-1.22A1.234,1.234,0,0,1,2.7,2.84h.65V5.7Zm3.16,5.33H4.84V7.81l1.01.35c.51.18.82.35.82,1.22A1.241,1.241,0,0,1,5.49,10.67Z" transform="translate(7.91 5.25)" fill="#fff"/>
      <path id="Vector-3" data-name="Vector" d="M0,0H24V24H0Z" fill="none" opacity="0"/>
    </g>
  </g>
</svg>
