<svg width="24" height="24" viewBox="0 0 24 24" fill="none" xmlns="http://www.w3.org/2000/svg">
<style>
 #clip , #rotate {
  
  transform-origin: center;
  transform-box: fill-box;
 }
 #rotate{
  animation: rotation 1s linear infinite;
 }
 #clip {
  animation: clip 1s linear infinite alternate;
 }
 @keyframes rotation {
    0% {
        transform: rotate(0deg);
    }

    50% {
        transform: rotate(10deg);
    }

    100% {
        transform: rotate(0deg);
    }
}

 @keyframes clip {
    0% {
     clip-path: polygon(0 0, 0 0, 0 100%, 0% 100%);
    }

    50% {
     clip-path: polygon(0 0, 57% 0, 56% 100%, 0 100%);
    }

    100% {
     clip-path: polygon(0 0, 100% 0, 100% 100%, 0 100%);
    }
}
</style>
<g id="Group 4459 1">
<g id="Group 4459">
<g id="edit-2/bulk">
<g id="vuesax/bulk/edit-2">
<g id="edit-2">
<path id="clip" opacity="0.4" d="M21 22H3C2.80149 21.9987 2.61149 21.9193 2.47112 21.7789C2.33075 21.6385 2.25131 21.4485 2.25 21.25C2.25131 21.0515 2.33075 20.8615 2.47112 20.7211C2.61149 20.5807 2.80149 20.5013 3 20.5H21C21.1985 20.5013 21.3885 20.5807 21.5289 20.7211C21.6693 20.8615 21.7487 21.0515 21.75 21.25C21.7487 21.4485 21.6693 21.6385 21.5289 21.7789C21.3885 21.9193 21.1985 21.9987 21 22V22Z" fill="#4E008C"/>
<g id="rotate">
<path id="Vector" opacity="0.4" d="M19.02 3.48C17.08 1.54 15.18 1.49 13.19 3.48L11.98 4.69C11.9301 4.74229 11.8946 4.80665 11.8771 4.87677C11.8596 4.9469 11.8606 5.02037 11.88 5.09C12.2625 6.40238 12.9697 7.59712 13.9363 8.56371C14.9029 9.53031 16.0976 10.2375 17.41 10.62C17.449 10.6315 17.4893 10.6382 17.53 10.64C17.5839 10.6406 17.6374 10.6302 17.6873 10.6096C17.7371 10.589 17.7822 10.5585 17.82 10.52L19.02 9.31C19.4472 8.95225 19.7976 8.51181 20.0502 8.01517C20.3029 7.51852 20.4524 6.97593 20.49 6.42C20.46 5.85526 20.3141 5.30275 20.0611 4.79693C19.8082 4.2911 19.4538 3.84281 19.02 3.48V3.48Z" fill="#4E008C"/>
<path id="Vector_2" d="M15.61 11.53C15.32 11.39 15.04 11.25 14.77 11.09C14.55 10.96 14.34 10.82 14.13 10.67C13.9351 10.5377 13.7481 10.3941 13.57 10.24C13.5088 10.1954 13.4519 10.1452 13.4 10.09C13.0272 9.77376 12.6826 9.42579 12.37 9.05C12.3143 8.99496 12.2641 8.93468 12.22 8.87C12.0692 8.69517 11.929 8.51151 11.8 8.32C11.6574 8.13192 11.5272 7.93485 11.41 7.73C11.25 7.46 11.11 7.19 10.97 6.91C10.83 6.61 10.72 6.32 10.62 6.05L4.33999 12.33C4.2003 12.4858 4.10378 12.6754 4.05999 12.88L3.51999 16.71C3.46427 17.0213 3.48131 17.3412 3.56979 17.6448C3.65826 17.9484 3.81577 18.2274 4.02999 18.46C4.40838 18.8157 4.91076 19.0095 5.42999 19C5.55062 19 5.67103 18.9899 5.78999 18.97L9.62999 18.43C9.83606 18.3904 10.0267 18.2933 10.18 18.15L16.46 11.87C16.18 11.77 15.91 11.66 15.61 11.53Z" fill="#4E008C"/>
</g>
</g>
</g>
</g>
</g>
</g>
</svg>
