<svg xmlns="http://www.w3.org/2000/svg" width="24" height="24" viewBox="0 0 24 24">
  <g id="Group_4313" data-name="Group 4313" transform="translate(-465 -318)">
    <g id="arrow-circle-left_bulk" data-name="arrow-circle-left/bulk" transform="translate(465 318)">
      <g id="vuesax_bulk_arrow-circle-left" data-name="vuesax/bulk/arrow-circle-left">
        <g id="arrow-circle-left">
          <path id="Vector" d="M20,10A10,10,0,1,1,10,0,10,10,0,0,1,20,10Z" transform="translate(2 2)" fill="#fff" opacity="0.4"/>
          <path id="Vector-2" data-name="Vector" d="M4.278,8.558a.742.742,0,0,1-.53-.22L.218,4.807a.754.754,0,0,1,0-1.06L3.747.218a.75.75,0,0,1,1.06,1.06l-3,3,3,3a.754.754,0,0,1,0,1.06A.71.71,0,0,1,4.278,8.558Z" transform="translate(8.983 7.722)" fill="#fff"/>
          <path id="Vector-3" data-name="Vector" d="M0,0H24V24H0Z" fill="none" opacity="0"/>
        </g>
      </g>
    </g>
  </g>
</svg>
