<svg xmlns="http://www.w3.org/2000/svg" width="77.333" height="80"><path data-name="Path 225" d="M20 5.333h2.667v32H20z" fill="#eaae48"/><path data-name="Path 226" d="M72 70.667V80h-4l-2.667-5.333v-4z" fill="#ce892a"/><path data-name="Path 227" d="M72 70.667v6.667h-5.333l-1.334-2.667v-4z" fill="#b0792c"/><path data-name="Path 228" d="M32 74.667V4a4 4 0 0 1 4-4h37.333a4 4 0 0 1 4 4v66.667a4 4 0 0 1-4 4z" fill="#eaae48"/><path data-name="Path 229" d="M53.333 0H56v74.667h-2.667z" fill="#d7a147"/><path data-name="Path 230" d="M53.334 70.667V80h-4l-2.667-5.333v-4z" fill="#eaae48"/><path data-name="Path 231" d="M53.334 70.667v6.667h-5.333l-1.334-2.667v-4z" fill="#d7a147"/><path data-name="Path 232" d="M20 70.667v4L17.333 80h-4v-9.333z" fill="#eaae48"/><path data-name="Path 233" d="M20 70.667v4l-1.333 2.667h-5.334v-6.667z" fill="#d7a147"/><path data-name="Path 234" d="M8 64V37.333a4 4 0 0 1 4-4h42.667a4 4 0 0 1 4 4V64z" fill="#cacac9"/><path data-name="Path 235" d="M50.667 62.667v-6.535A8.085 8.085 0 0 1 58.53 48a8 8 0 1 1 .137 16v6.666a4 4 0 0 1-4 4H12a4 4 0 0 1-4-4V64a8 8 0 1 1 8-8v6.667S21.333 60 33.333 60s17.334 2.667 17.334 2.667z" fill="#e4e4e3"/><path data-name="Path 236" d="M8 60a4 4 0 1 1 4-4 4 4 0 0 1-4 4zm0-5.333A1.333 1.333 0 1 0 9.333 56 1.333 1.333 0 0 0 8 54.667z" fill="#b3b1b3"/><path data-name="Path 237" d="M58.667 60a4 4 0 1 1 4-4 4 4 0 0 1-4 4zm0-5.333A1.333 1.333 0 1 0 60 56a1.333 1.333 0 0 0-1.333-1.333z" fill="#b3b1b3"/><path data-name="Path 238" d="M12.044 64.082a1.335 1.335 0 0 1 .633-1.88c2.72-1.171 9.583-3.535 20.66-3.535s17.933 2.363 20.654 3.535a1.337 1.337 0 0 1-1.052 2.457c-2.442-1.039-9.016-3.325-19.6-3.325s-17.159 2.286-19.6 3.326a1.335 1.335 0 0 1-1.695-.578z" fill="#b3b1b3"/><g data-name="Group 115" fill="#969595"><path data-name="Path 239" d="M25.334 40h2.667v2.667h-2.667z"/><path data-name="Path 240" d="M32 46.667h2.667v2.667H32z"/><path data-name="Path 241" d="M18.667 46.667h2.667v2.667h-2.667z"/><path data-name="Path 242" d="M25.334 53.333h2.667V56h-2.667z"/><path data-name="Path 243" d="M38.667 40h2.667v2.667h-2.667z"/><path data-name="Path 244" d="M45.334 46.667h2.667v2.667h-2.667z"/><path data-name="Path 245" d="M38.667 53.333h2.667V56h-2.667z"/></g><path data-name="Path 246" d="M34.667 25.333H8l1.333-16h24z" fill="#e4e4e3"/></svg>