<svg width="120" height="70" viewBox="0 0 120 70" fill="none" xmlns="http://www.w3.org/2000/svg">
<style>
#rotate,#translate_x,#translate_y{transform-origin:center;transform-box:fill-box}#rotate{animation:spin 5s linear infinite}@keyframes spin{0%{-webkit-transform:rotate(0);-ms-transform:rotate(0);transform:rotate(0)}100%{-webkit-transform:rotate(360deg);-ms-transform:rotate(360deg);transform:rotate(360deg)}}@keyframes translateX{0%,100%{transform:translateX(0)}50%{transform:translateX(4px)}}@keyframes translateY{0%,100%{transform:translateY(0)}50%{transform:translateY(-2px)}}
</style>
<g id="Layer 1 1" clip-path="url(#clip0_451_2)">
<g id="rotate">
<path id="Path 1" d="M48.202 37.76C46.6754 35.6088 45.7463 33.0915 45.5092 30.4644C45.2722 27.8372 45.7357 25.1942 46.8525 22.8045C47.9693 20.4148 49.6995 18.3638 51.8669 16.8604C54.0343 15.357 56.5615 14.4549 59.191 14.246V21.546L74.115 11.814L59.19 0V7.039C55.2374 7.24933 51.4136 8.51676 48.1179 10.709C44.8222 12.9012 42.1754 15.9379 40.4536 19.5021C38.7319 23.0662 37.9983 27.0272 38.3296 30.9715C38.6609 34.9159 40.0449 38.699 42.337 41.926C42.9093 42.6504 43.738 43.1273 44.6519 43.258C45.5658 43.3888 46.495 43.1634 47.2475 42.6286C48 42.0937 48.5182 41.2902 48.6951 40.3841C48.872 39.478 48.694 38.5386 48.198 37.76H48.202Z" fill="white"/>
<path id="Path 2" d="M78.52 16.697C77.9477 15.9726 77.119 15.4957 76.2051 15.365C75.2912 15.2342 74.362 15.4596 73.6095 15.9944C72.857 16.5293 72.3388 17.3328 72.1619 18.2389C71.985 19.145 72.1629 20.0844 72.659 20.863C74.1854 23.0139 75.1146 25.5309 75.3518 28.1577C75.5891 30.7845 75.1259 33.4273 74.0096 35.8169C72.8933 38.2065 71.1636 40.2576 68.9967 41.7612C66.8298 43.2649 64.3032 44.1675 61.674 44.377V37.077L46.454 46.626L61.67 58.626V51.59C65.6229 51.3795 69.4468 50.1118 72.7425 47.9192C76.0383 45.7266 78.6851 42.6895 80.4065 39.1249C82.128 35.5604 82.8611 31.5991 82.5293 27.6545C82.1974 23.71 80.8128 19.9268 78.52 16.7V16.697Z" fill="white"/>
</g>
<path id="translate_x" d="M12.555 16.735V47.596H0V5.386H16.111C21.017 5.386 24.8207 6.60233 27.522 9.035C28.9862 10.3266 30.1493 11.9235 30.9294 13.7133C31.7095 15.5031 32.0876 17.4422 32.037 19.394C32.037 23.6607 30.1703 27.258 26.437 30.186L33.676 47.596H20.5L14.408 33.996V23.136H15.398C18.0367 23.136 19.356 22.0027 19.356 19.736C19.356 17.736 17.8307 16.736 14.78 16.736L12.555 16.735Z" fill="white"/>
<path id="translate_y" d="M110.132 17.508V47.596H97.577V17.508H87.964V5.386H119.722V17.508H110.132Z" fill="white"/>
<path id="Path 5" d="M2.316 66.377V68.397C2.31063 68.6045 2.32436 68.812 2.357 69.017C2.3738 69.1225 2.41526 69.2225 2.478 69.309C2.5384 69.3786 2.61402 69.4333 2.699 69.469C2.85373 69.5288 3.01332 69.5754 3.176 69.608V69.9H0.0809994V69.609C0.29537 69.5785 0.501824 69.5068 0.688999 69.398C0.794599 69.316 0.865896 69.1977 0.888999 69.066C0.927001 68.8502 0.943083 68.6311 0.936999 68.412V63.273C0.942483 63.0723 0.930437 62.8716 0.900999 62.673C0.886054 62.5645 0.844484 62.4615 0.779999 62.373C0.720255 62.3012 0.644581 62.2444 0.558999 62.207C0.404467 62.1465 0.244829 62.1 0.0819994 62.068V61.784H3.709C4.59326 61.728 5.47694 61.902 6.274 62.289C6.54717 62.446 6.77132 62.6759 6.92141 62.953C7.07151 63.23 7.14165 63.5434 7.124 63.858C7.12897 64.1141 7.0826 64.3685 6.98762 64.6064C6.89264 64.8443 6.75098 65.0608 6.571 65.243C6.10394 65.6779 5.53249 65.9848 4.912 66.134V66.184C5.19276 66.2733 5.45285 66.4178 5.677 66.609C5.94893 66.8637 6.18689 67.1524 6.385 67.468L7.049 68.442C7.19751 68.671 7.36156 68.8895 7.54 69.096C7.66011 69.2325 7.80121 69.349 7.958 69.441C8.13435 69.5301 8.32547 69.5863 8.522 69.607V69.907H6.488C6.29821 69.6922 6.12155 69.4661 5.959 69.23C5.793 68.9873 5.62933 68.7413 5.468 68.492L4.823 67.492C4.67771 67.2604 4.51736 67.0385 4.343 66.828C4.24597 66.7094 4.12968 66.608 3.999 66.528C3.8952 66.4713 3.78319 66.4311 3.667 66.409C3.48815 66.3838 3.30757 66.3731 3.127 66.377H2.316ZM2.316 62.336V65.866H3.144C3.49022 65.872 3.83628 65.8469 4.178 65.791C4.43789 65.7439 4.68657 65.6483 4.911 65.509C5.13943 65.3658 5.3255 65.1642 5.45 64.925C5.59148 64.6424 5.66023 64.3289 5.65 64.013C5.66297 63.6856 5.58251 63.3613 5.418 63.078C5.24312 62.8167 4.99056 62.6169 4.696 62.507C4.27885 62.3601 3.83799 62.2923 3.396 62.307C2.951 62.312 2.59 62.319 2.316 62.336V62.336Z" fill="white"/>
<path id="Path 6" d="M16.857 61.788V63.583H16.144C16.0788 63.408 16.0027 63.2374 15.916 63.072C15.8487 62.9411 15.7676 62.8177 15.674 62.704C15.5967 62.6098 15.5041 62.5293 15.4 62.466C15.2906 62.4029 15.1701 62.3615 15.045 62.344C14.8821 62.3201 14.7176 62.3091 14.553 62.311H12.232V65.425H13.8C13.9721 65.4321 14.1441 65.4071 14.307 65.351C14.43 65.2986 14.5345 65.2104 14.607 65.098C14.7111 64.9241 14.789 64.7357 14.838 64.539H15.527V66.822H14.844C14.7959 66.6318 14.719 66.45 14.616 66.283C14.5422 66.1706 14.4382 66.0812 14.316 66.025C14.1502 65.9649 13.9741 65.9387 13.798 65.948H12.232V69.376H14.511C14.7066 69.3797 14.902 69.3626 15.094 69.325C15.2331 69.2957 15.3643 69.237 15.479 69.153C15.5927 69.0647 15.6896 68.9566 15.765 68.834C15.8472 68.7051 15.9172 68.5689 15.974 68.427C16.029 68.286 16.107 68.082 16.204 67.812H16.929L16.791 69.9H10.004V69.609C10.2184 69.5787 10.4249 69.507 10.612 69.398C10.7171 69.3156 10.7883 69.1975 10.812 69.066C10.8494 68.8501 10.8655 68.631 10.86 68.412V63.273C10.8655 63.0723 10.8534 62.8716 10.824 62.673C10.8071 62.5674 10.7653 62.4672 10.702 62.381C10.6423 62.3092 10.5666 62.2524 10.481 62.215C10.3265 62.1544 10.1669 62.1078 10.004 62.076V61.784L16.857 61.788Z" fill="white"/>
<path id="Path 7" d="M25.326 66.684C25.502 66.922 25.649 67.126 25.768 67.308C25.887 67.49 26.01 67.688 26.137 67.908H26.237C26.213 67.6667 26.1913 67.1873 26.172 66.47C26.1527 65.7527 26.1427 65.104 26.142 64.524V63.273C26.1457 63.0726 26.136 62.8721 26.113 62.673C26.1002 62.5684 26.0621 62.4685 26.002 62.382C25.9456 62.3106 25.8724 62.2543 25.789 62.218C25.6364 62.1568 25.4784 62.1103 25.317 62.079V61.784H27.963V62.076C27.804 62.105 27.648 62.1484 27.497 62.206C27.413 62.2407 27.3376 62.2933 27.276 62.36C27.2112 62.4434 27.1673 62.5411 27.148 62.645C27.1131 62.8514 27.0987 63.0607 27.105 63.27V69.932H26.188L22.102 64.382C21.849 64.037 21.667 63.782 21.56 63.627C21.453 63.472 21.352 63.312 21.26 63.158H21.136C21.169 63.458 21.195 64.014 21.209 64.817C21.223 65.62 21.231 66.411 21.231 67.204V68.421C21.2264 68.6159 21.2374 68.8109 21.264 69.004C21.2789 69.108 21.3168 69.2075 21.375 69.295C21.4328 69.3718 21.5087 69.4329 21.596 69.473C21.7531 69.5378 21.9167 69.5857 22.084 69.616V69.899H19.415V69.608C19.6294 69.5775 19.8358 69.5059 20.023 69.397C20.1286 69.315 20.1999 69.1966 20.223 69.065C20.2614 68.8492 20.2779 68.6301 20.272 68.411V63.272C20.277 63.0713 20.2643 62.8705 20.234 62.672C20.2182 62.5632 20.1756 62.4601 20.11 62.372C20.0504 62.3 19.9747 62.2431 19.889 62.206C19.7345 62.1455 19.5748 62.099 19.412 62.067V61.784H21.707L25.326 66.684Z" fill="white"/>
<path id="Path 8" d="M29.962 61.788H37.892V63.856H37.174C37.0906 63.578 36.9836 63.3077 36.854 63.048C36.7711 62.8791 36.6587 62.7263 36.522 62.597C36.4124 62.4983 36.2837 62.4231 36.144 62.376C35.9482 62.3256 35.7461 62.3037 35.544 62.311H34.613V68.394C34.6087 68.5812 34.6248 68.7683 34.661 68.952C34.6839 69.0725 34.7342 69.186 34.808 69.284C34.879 69.3694 34.971 69.4349 35.075 69.474C35.2467 69.5352 35.4238 69.5801 35.604 69.608V69.902H32.253V69.611C32.3837 69.5878 32.5132 69.5581 32.641 69.522C32.7376 69.4988 32.8303 69.4614 32.916 69.411C32.9867 69.3658 33.0468 69.3057 33.092 69.235C33.1463 69.1455 33.1839 69.0469 33.203 68.944C33.2347 68.7655 33.2484 68.5842 33.244 68.403V62.32H32.319C32.1286 62.3161 31.9384 62.3339 31.752 62.373C31.5976 62.4113 31.455 62.4872 31.337 62.594C31.192 62.7309 31.0742 62.8942 30.99 63.075C30.8663 63.3277 30.7659 63.5911 30.69 63.862H29.965L29.962 61.788Z" fill="white"/>
<path id="Path 9" d="M47.82 69.996C47.2777 70.0028 46.7376 69.9239 46.22 69.762C45.7565 69.6164 45.3326 69.3663 44.981 69.031C44.62 68.6758 44.3462 68.2417 44.181 67.763C43.9803 67.1681 43.8849 66.5427 43.899 65.915C43.8777 65.1266 44.0493 64.3449 44.399 63.638C44.7147 63.0211 45.2126 62.5163 45.825 62.192C46.4892 61.8489 47.2286 61.677 47.976 61.692C48.7364 61.6666 49.4915 61.8269 50.176 62.159C50.7594 62.4596 51.2298 62.9409 51.517 63.531C51.8248 64.2531 51.9783 65.0316 51.9677 65.8165C51.957 66.6014 51.7824 67.3755 51.455 68.089C51.1323 68.7054 50.6245 69.2052 50.003 69.518C49.3238 69.8488 48.5753 70.0127 47.82 69.996ZM45.408 65.747C45.3454 66.7171 45.5742 67.6838 46.065 68.523C46.2759 68.8328 46.5631 69.0829 46.8989 69.2493C47.2347 69.4157 47.6078 69.4928 47.982 69.473C48.4654 69.4867 48.9399 69.3416 49.333 69.06C49.7281 68.7511 50.0194 68.3289 50.168 67.85C50.3647 67.25 50.459 66.6212 50.447 65.99C50.4685 65.2602 50.3581 64.5325 50.121 63.842C49.9582 63.3484 49.6492 62.916 49.235 62.602C48.8477 62.3417 48.3896 62.2069 47.923 62.216C47.5302 62.2048 47.1407 62.2907 46.789 62.466C46.4722 62.6331 46.2026 62.8773 46.005 63.176C45.784 63.5153 45.6299 63.8938 45.551 64.291C45.4514 64.7698 45.4034 65.2579 45.408 65.747V65.747Z" fill="white"/>
<path id="Path 10" d="M61.106 61.788V63.583H60.388C60.3017 63.357 60.1974 63.1383 60.076 62.929C59.9948 62.7843 59.8881 62.6556 59.761 62.549C59.6476 62.4601 59.5162 62.397 59.376 62.364C59.186 62.3244 58.9921 62.3066 58.798 62.311H56.65V65.548H58.16C58.3329 65.5557 58.5054 65.5264 58.666 65.462C58.7929 65.3986 58.8975 65.2982 58.966 65.174C59.0697 64.977 59.147 64.7671 59.196 64.55H59.885V67.057H59.196C59.1454 66.8448 59.0667 66.6404 58.962 66.449C58.8921 66.3249 58.7879 66.2235 58.662 66.157C58.5004 66.0909 58.3263 66.0616 58.152 66.071H56.642V68.401C56.6374 68.5926 56.6545 68.7842 56.693 68.972C56.7186 69.0975 56.7769 69.2142 56.862 69.31C56.9485 69.3992 57.0573 69.4637 57.177 69.497C57.338 69.5461 57.502 69.5849 57.668 69.613V69.905H54.422V69.614C54.6364 69.5836 54.8429 69.5119 55.03 69.403C55.1355 69.321 55.2068 69.2026 55.23 69.071C55.2684 68.8552 55.2849 68.6361 55.279 68.417V63.278C55.2839 63.0773 55.2712 62.8765 55.241 62.678C55.2248 62.5724 55.1833 62.4721 55.12 62.386C55.0603 62.3142 54.9846 62.2574 54.899 62.22C54.7445 62.1595 54.5848 62.113 54.422 62.081V61.789L61.106 61.788Z" fill="white"/>
<path id="Path 11" d="M66.708 61.788H74.638V63.856H73.92C73.8377 63.5779 73.7313 63.3076 73.602 63.048C73.519 62.8792 73.4066 62.7264 73.27 62.597C73.1606 62.4985 73.0323 62.4234 72.893 62.376C72.6971 62.3258 72.4951 62.3039 72.293 62.311H71.362V68.394C71.3582 68.5815 71.3743 68.7689 71.41 68.953C71.4329 69.0735 71.4832 69.1871 71.557 69.285C71.6284 69.3705 71.7207 69.4359 71.825 69.475C71.9963 69.5364 72.1732 69.5813 72.353 69.609V69.903H69.005V69.612C69.1523 69.5847 69.2817 69.555 69.393 69.523C69.4896 69.4998 69.5823 69.4624 69.668 69.412C69.7388 69.3668 69.7988 69.3067 69.844 69.236C69.8982 69.1465 69.9358 69.0479 69.955 68.945C69.9872 68.7665 70.001 68.5852 69.996 68.404V62.321H69.073C68.8823 62.3171 68.6917 62.3349 68.505 62.374C68.3509 62.4123 68.2086 62.4883 68.091 62.595C67.946 62.7322 67.828 62.8953 67.743 63.076C67.6197 63.3288 67.5193 63.5923 67.443 63.863H66.708V61.788Z" fill="white"/>
<path id="Path 12" d="M84.399 68.416C84.3964 68.589 84.4037 68.7619 84.421 68.934C84.4301 69.029 84.4548 69.1219 84.494 69.209C84.5246 69.273 84.567 69.3307 84.619 69.379C84.6813 69.4302 84.752 69.4701 84.828 69.497C84.9652 69.5449 85.106 69.582 85.249 69.608V69.902H82.175V69.611C82.3718 69.5802 82.5622 69.5178 82.739 69.426C82.8488 69.3544 82.9278 69.2441 82.96 69.117C83.0114 68.8874 83.0326 68.6521 83.023 68.417V65.917H78.95V68.408C78.9452 68.6028 78.9559 68.7978 78.982 68.991C78.9967 69.0951 79.0346 69.1946 79.093 69.282C79.1525 69.3595 79.2305 69.4207 79.32 69.46C79.4771 69.5248 79.6407 69.5727 79.808 69.603V69.903H76.722V69.612C76.9364 69.5816 77.1429 69.51 77.33 69.401C77.4352 69.3187 77.5064 69.2005 77.53 69.069C77.5679 68.8531 77.584 68.6341 77.578 68.415V63.276C77.583 63.0753 77.5707 62.8745 77.541 62.676C77.5247 62.5705 77.4836 62.4704 77.421 62.384C77.3611 62.3124 77.2855 62.2555 77.2 62.218C77.0455 62.1574 76.8858 62.1109 76.723 62.079V61.787H79.808V62.079C79.6485 62.1054 79.4922 62.149 79.342 62.209C79.2571 62.2465 79.1815 62.3026 79.121 62.373C79.0551 62.4588 79.0121 62.56 78.996 62.667C78.9643 62.8674 78.951 63.0702 78.956 63.273V65.373H83.031V63.273C83.0422 63.0353 83.021 62.7971 82.968 62.565C82.9333 62.4471 82.8596 62.3445 82.759 62.274C82.5789 62.1754 82.3835 62.1078 82.181 62.074V61.782H85.252V62.074C85.0521 62.1035 84.8587 62.1668 84.68 62.261C84.5698 62.3335 84.4908 62.4449 84.459 62.573C84.4109 62.8031 84.391 63.0382 84.4 63.273L84.399 68.416Z" fill="white"/>
<path id="Path 13" d="M89.934 68.415C89.9298 68.6099 89.9405 68.8047 89.966 68.998C89.9807 69.1021 90.0186 69.2016 90.077 69.289C90.1347 69.3657 90.2107 69.4269 90.298 69.467C90.4551 69.5318 90.6187 69.5797 90.786 69.61V69.902H87.686V69.611C87.9004 69.5807 88.1069 69.5091 88.294 69.4C88.3991 69.3176 88.4702 69.1994 88.494 69.068C88.5312 68.8521 88.5469 68.633 88.541 68.414V63.275C88.5466 63.0743 88.5339 62.8734 88.503 62.675C88.4872 62.5694 88.446 62.4692 88.383 62.383C88.3233 62.3112 88.2476 62.2543 88.162 62.217C88.0075 62.1565 87.8478 62.11 87.685 62.078V61.786H90.785V62.078C90.6255 62.1046 90.4693 62.1482 90.319 62.208C90.2319 62.2447 90.1542 62.3008 90.092 62.372C90.0261 62.4578 89.9831 62.559 89.967 62.666C89.9352 62.8664 89.9218 63.0692 89.927 63.272L89.934 68.415Z" fill="white"/>
<path id="Path 14" d="M99.151 66.685C99.327 66.923 99.474 67.127 99.594 67.309C99.714 67.491 99.837 67.688 99.963 67.909H100.063C100.038 67.6676 100.016 67.1883 99.996 66.471C99.976 65.7537 99.966 65.105 99.966 64.525V63.274C99.9703 63.0735 99.9605 62.8731 99.937 62.674C99.9243 62.5694 99.8863 62.4694 99.826 62.383C99.7701 62.3115 99.6972 62.2551 99.614 62.219C99.461 62.1581 99.3026 62.1116 99.141 62.08V61.788H101.776V62.08C101.617 62.1089 101.461 62.1525 101.31 62.21C101.226 62.2447 101.151 62.2973 101.089 62.364C101.025 62.4477 100.981 62.5453 100.961 62.649C100.926 62.8554 100.912 63.0647 100.918 63.274V69.936H100.008L95.926 64.385C95.6713 64.0397 95.4904 63.788 95.383 63.63C95.272 63.472 95.175 63.315 95.083 63.161H94.959C94.993 63.4657 95.0173 64.0187 95.032 64.82C95.0467 65.6213 95.054 66.4166 95.054 67.206V68.423C95.0494 68.6179 95.0604 68.8128 95.087 69.006C95.1023 69.1099 95.1402 69.2092 95.198 69.297C95.2578 69.3746 95.3362 69.4358 95.426 69.475C95.5827 69.54 95.746 69.5879 95.913 69.618V69.901H93.236V69.61C93.4504 69.5796 93.6569 69.508 93.844 69.399C93.949 69.3165 94.0202 69.1984 94.044 69.067C94.0814 68.8511 94.0975 68.6321 94.092 68.413V63.274C94.0971 63.0733 94.0848 62.8725 94.055 62.674C94.0382 62.5683 93.9963 62.4682 93.933 62.382C93.8734 62.3101 93.7977 62.2532 93.712 62.216C93.5575 62.1553 93.3979 62.1088 93.235 62.077V61.785H95.53L99.151 66.685Z" fill="white"/>
<path id="Path 15" d="M111.284 69.871L110.712 69.995L110.178 69.532C109.861 69.6906 109.525 69.8086 109.178 69.883C108.785 69.962 108.385 69.9992 107.984 69.994C107.472 70.032 106.958 69.9596 106.476 69.7818C105.994 69.6039 105.556 69.3246 105.192 68.963C104.507 68.0954 104.172 67.0025 104.253 65.9C104.236 65.1278 104.413 64.3637 104.766 63.677C105.098 63.0497 105.611 62.5372 106.239 62.206C106.937 61.8496 107.713 61.6729 108.497 61.692C108.951 61.692 109.388 61.713 109.809 61.755C110.279 61.8047 110.746 61.8785 111.209 61.976V63.611H110.483C110.381 63.3056 110.221 63.0223 110.014 62.776C109.838 62.5794 109.615 62.4319 109.365 62.348C109.055 62.2544 108.732 62.2112 108.408 62.22C107.909 62.2104 107.42 62.3558 107.008 62.636C106.583 62.9452 106.259 63.3721 106.074 63.864C105.837 64.4892 105.724 65.1547 105.742 65.823C105.727 66.4976 105.822 67.1701 106.024 67.814C106.171 68.3046 106.463 68.7388 106.863 69.059C107.261 69.346 107.743 69.493 108.233 69.477C108.682 69.5102 109.13 69.4037 109.516 69.172C109.658 69.0618 109.771 68.9183 109.844 68.7541C109.917 68.59 109.949 68.4103 109.936 68.231V67.875C109.946 67.615 109.922 67.3549 109.866 67.101C109.827 66.9546 109.741 66.8252 109.621 66.733C109.445 66.6227 109.248 66.5496 109.042 66.518V66.227H112.004V66.518C111.863 66.5502 111.727 66.6056 111.604 66.682C111.519 66.7406 111.451 66.8193 111.404 66.911C111.353 67.0153 111.319 67.1276 111.304 67.243C111.285 67.4314 111.276 67.6207 111.279 67.81L111.284 69.871Z" fill="white"/>
<path id="Path 16" d="M114.707 68.052C114.782 68.3519 114.918 68.6331 115.107 68.878C115.278 69.0832 115.5 69.2384 115.752 69.327C116.08 69.4337 116.425 69.4827 116.77 69.472C117.237 69.5024 117.7 69.3749 118.086 69.11C118.241 68.9826 118.363 68.8203 118.443 68.6363C118.522 68.4523 118.557 68.252 118.544 68.052C118.553 67.7893 118.487 67.5294 118.354 67.303C118.192 67.0681 117.979 66.8729 117.731 66.732C117.308 66.4896 116.867 66.281 116.412 66.108C115.939 65.928 115.485 65.7019 115.056 65.433C114.76 65.2489 114.507 65.0046 114.312 64.716C114.15 64.4645 114.065 64.1712 114.067 63.872C114.058 63.4538 114.194 63.0455 114.452 62.716C114.749 62.3616 115.14 62.0987 115.58 61.958C116.127 61.7717 116.702 61.681 117.28 61.69C117.652 61.69 118.014 61.707 118.368 61.738C118.814 61.7842 119.257 61.8557 119.695 61.952V63.552H118.97C118.885 63.2544 118.74 62.9771 118.545 62.737C118.385 62.5506 118.177 62.4101 117.945 62.33C117.655 62.2459 117.353 62.2084 117.051 62.219C116.76 62.2142 116.471 62.2623 116.197 62.361C115.96 62.4441 115.751 62.5937 115.597 62.792C115.448 62.9896 115.37 63.2317 115.376 63.479C115.368 63.7298 115.433 63.9776 115.563 64.192C115.716 64.4127 115.915 64.5974 116.146 64.733C116.52 64.9529 116.912 65.1399 117.318 65.292C117.822 65.4857 118.309 65.7223 118.773 65.999C119.089 66.1909 119.363 66.4446 119.579 66.745C119.775 67.0331 119.876 67.3749 119.868 67.723C119.88 68.0893 119.797 68.4524 119.627 68.777C119.466 69.0633 119.235 69.3041 118.956 69.477C118.641 69.6685 118.293 69.801 117.93 69.868C117.499 69.9527 117.061 69.9936 116.622 69.99C115.729 69.9754 114.84 69.8702 113.968 69.676V68.043L114.707 68.052Z" fill="white"/>
</g>
<defs>
<clipPath id="clip0_451_2">
<rect width="119.87" height="70" fill="white"/>
</clipPath>
</defs>
</svg>
