<svg xmlns="http://www.w3.org/2000/svg" width="29.541" height="29.541" viewBox="0 0 29.541 29.541">
  <g id="Group_4366" data-name="Group 4366" transform="translate(-711 -1102)">
    <g id="Group_4365" data-name="Group 4365" transform="translate(711 1102)">
      <g id="arrow-circle-left_bulk" data-name="arrow-circle-left/bulk">
        <g id="vuesax_bulk_arrow-circle-left" data-name="vuesax/bulk/arrow-circle-left">
          <g id="arrow-circle-left">
            <path id="Vector" d="M24.618,12.309A12.309,12.309,0,1,1,12.309,0,12.309,12.309,0,0,1,24.618,12.309Z" transform="translate(2.462 2.462)" fill="#bc8b46" opacity="0.4"/>
            <path id="Vector-2" data-name="Vector" d="M5.265,10.533a.913.913,0,0,1-.652-.271L.268,5.917a.929.929,0,0,1,0-1.3L4.613.268a.923.923,0,0,1,1.3,1.3L2.225,5.265,5.917,8.958a.929.929,0,0,1,0,1.3A.874.874,0,0,1,5.265,10.533Z" transform="translate(11.056 9.506)" fill="#bc8b46"/>
            <path id="Vector-3" data-name="Vector" d="M0,0H29.541V29.541H0Z" fill="none" opacity="0"/>
          </g>
        </g>
      </g>
    </g>
  </g>
</svg>
