<svg xmlns="http://www.w3.org/2000/svg" width="14.933" height="20.6"><path data-name="Path 24" d="M0 20.6a7.664 7.664 0 0 1 7.467-7.848 7.664 7.664 0 0 1 7.466 7.848zm8.4-5.8v3.842h4.348A9.83 9.83 0 0 0 8.4 14.8zm-1.867 3.842V14.8a5.692 5.692 0 0 0-4.348 3.842zm.933-6.867a5.747 5.747 0 0 1-5.6-5.886A5.78 5.78 0 0 1 7.467 0a5.747 5.747 0 0 1 5.6 5.886 5.747 5.747 0 0 1-5.6 5.885zm0-1.962A3.831 3.831 0 0 0 11.2 5.886a3.831 3.831 0 0 0-3.733-3.924 3.831 3.831 0 0 0-3.734 3.924A3.831 3.831 0 0 0 7.467 9.81z" fill="#b8b6b6"/></svg>