<svg xmlns="http://www.w3.org/2000/svg" width="18.925" height="17.92"><path d="M9.464 4.366a4.6 4.6 0 1 0 0 9.189 4.6 4.6 0 1 0 0-9.189zm0 7.582a2.991 2.991 0 1 1 0-5.974 2.991 2.991 0 1 1 0 5.974zm6.181-7.773a1.133 1.133 0 1 1-1.131-1.072 1.1 1.1 0 0 1 1.131 1.072zm3.213 1.088a5.151 5.151 0 0 0-1.528-3.755A5.815 5.815 0 0 0 13.366.06c-1.562-.084-6.244-.084-7.806 0a5.807 5.807 0 0 0-3.965 1.447A5.168 5.168 0 0 0 .066 5.261c-.091 1.48-.091 5.914 0 7.394a5.151 5.151 0 0 0 1.529 3.755 5.822 5.822 0 0 0 3.964 1.448c1.562.084 6.244.084 7.806 0a5.777 5.777 0 0 0 3.964-1.448 5.185 5.185 0 0 0 1.528-3.755c.089-1.48.089-5.91 0-7.39zM16.84 14.24a3.113 3.113 0 0 1-1.8 1.7c-1.245.468-4.2.36-5.577.36s-4.336.1-5.577-.36a3.114 3.114 0 0 1-1.8-1.7c-.494-1.18-.38-3.979-.38-5.282s-.11-4.107.38-5.282a3.113 3.113 0 0 1 1.8-1.7c1.245-.468 4.2-.36 5.577-.36s4.336-.1 5.577.36a3.114 3.114 0 0 1 1.8 1.7c.494 1.18.38 3.979.38 5.282s.114 4.109-.38 5.285z" fill="#fff"/></svg>