<svg xmlns="http://www.w3.org/2000/svg" width="20" height="20"><path data-name="Path 22" d="M10 20a10 10 0 1 1 10-10 10 10 0 0 1-10 10zm-2.29-2.333A17.9 17.9 0 0 1 6.027 11H2.062a8.008 8.008 0 0 0 5.648 6.667zM8.03 11A15.915 15.915 0 0 0 10 17.752 15.9 15.9 0 0 0 11.97 11H8.03zm9.908 0h-3.965a17.9 17.9 0 0 1-1.683 6.667A8.008 8.008 0 0 0 17.938 11zM2.062 9h3.965A17.9 17.9 0 0 1 7.71 2.333 8.008 8.008 0 0 0 2.062 9zm5.969 0h3.938A15.9 15.9 0 0 0 10 2.248 15.9 15.9 0 0 0 8.03 9zm4.259-6.667A17.9 17.9 0 0 1 13.973 9h3.965a8.008 8.008 0 0 0-5.648-6.667z" fill="#bc8b46"/></svg>