<svg width="103" height="60" viewBox="0 0 103 60" fill="none" xmlns="http://www.w3.org/2000/svg">
<style>
#rotate,#translate_x,#translate_y{transform-origin:center;transform-box:fill-box}#rotate{animation:spin 5s linear infinite}@keyframes spin{0%{-webkit-transform:rotate(0);-ms-transform:rotate(0);transform:rotate(0)}100%{-webkit-transform:rotate(360deg);-ms-transform:rotate(360deg);transform:rotate(360deg)}}@keyframes translateX{0%,100%{transform:translateX(0)}50%{transform:translateX(4px)}}@keyframes translateY{0%,100%{transform:translateY(0)}50%{transform:translateY(-2px)}}
</style>
<g id="logo 1" clip-path="url(#clip0_443_2)">
<g id="rotate">
<path id="Path 1" d="M41.249 32.759C39.9244 30.8927 39.1182 28.7087 38.9124 26.4294C38.7067 24.1501 39.1088 21.857 40.0777 19.7837C41.0467 17.7104 42.5479 15.931 44.4285 14.6268C46.309 13.3225 48.5016 12.54 50.783 12.359V18.691L63.731 10.248L50.782 0V6.107C47.3529 6.28963 44.0356 7.38931 41.1764 9.29128C38.3173 11.1932 36.021 13.8278 34.5273 16.9199C33.0336 20.012 32.3973 23.4483 32.6846 26.8703C32.972 30.2922 34.1725 33.5743 36.161 36.374C36.6481 37.028 37.3719 37.4652 38.1773 37.5922C38.9828 37.7192 39.806 37.5258 40.4706 37.0534C41.1353 36.581 41.5886 35.8672 41.7335 35.0648C41.8784 34.2623 41.7034 33.435 41.246 32.76L41.249 32.759Z" fill="url(#paint0_linear_443_2)"/>
<path id="Path 2" d="M67.428 14.069C66.9409 13.415 66.2172 12.9778 65.4117 12.8508C64.6062 12.7238 63.783 12.9172 63.1184 13.3896C62.4537 13.862 62.0004 14.5758 61.8555 15.3782C61.7106 16.1807 61.8856 17.008 62.343 17.683C63.6676 19.5493 64.4738 21.7333 64.6796 24.0126C64.8853 26.2919 64.4832 28.585 63.5143 30.6583C62.5453 32.7316 61.0441 34.511 59.1636 35.8152C57.283 37.1195 55.0904 37.902 52.809 38.083V31.751L39.609 40.03L52.809 50.443V44.343C56.2392 44.1611 59.5578 43.0616 62.4179 41.1592C65.2781 39.2567 67.575 36.6213 69.0687 33.528C70.5624 30.4347 71.1982 26.997 70.9096 23.5741C70.621 20.1512 69.4186 16.8685 67.428 14.069V14.069Z" fill="url(#paint1_linear_443_2)"/>
</g>
<path id="translate_x" d="M10.893 14.518V41.292H0V4.672H13.977C18.233 4.672 21.533 5.72733 23.877 7.838C25.1862 9.01527 26.2161 10.47 26.8914 12.096C27.5667 13.7221 27.8705 15.4784 27.7805 17.2368C27.6905 18.9952 27.2091 20.7113 26.3713 22.2599C25.5335 23.8085 24.3606 25.1505 22.938 26.188L29.217 41.288H17.787L12.5 29.491V20.072H13.359C15.6483 20.072 16.793 19.0883 16.793 17.121C16.793 15.3877 15.4697 14.521 12.823 14.521L10.893 14.518Z" fill="url(#paint2_linear_443_2)"/>
<path id="translate_y" d="M94.297 15.188V41.288H83.405V15.188H75.065V4.672H102.617V15.188H94.297Z" fill="url(#paint3_linear_443_2)"/>
<path id="Path 5" d="M2.009 56.857V58.61C2.00415 58.7901 2.01587 58.9701 2.044 59.148C2.05713 59.239 2.09138 59.3257 2.144 59.4011C2.19647 59.4615 2.26217 59.5091 2.336 59.54C2.47028 59.5922 2.60879 59.6326 2.75 59.661V59.9141H0.0699997V59.662C0.256159 59.6357 0.435456 59.5735 0.598 59.479C0.690145 59.4081 0.752545 59.3055 0.773 59.191C0.805723 59.0039 0.81946 58.8139 0.814 58.624V54.166C0.818357 53.9927 0.80765 53.8194 0.782 53.648C0.770007 53.5555 0.735687 53.4673 0.682 53.391C0.630207 53.3286 0.564428 53.2792 0.49 53.247C0.355897 53.1944 0.217341 53.1539 0.0759997 53.126V52.872H3.218C3.98504 52.8235 4.75157 52.9744 5.443 53.3101C5.68006 53.4462 5.8746 53.6456 6.00492 53.8859C6.13524 54.1262 6.1962 54.398 6.181 54.671C6.18507 54.8929 6.1447 55.1134 6.06226 55.3195C5.97983 55.5256 5.857 55.7131 5.701 55.871C5.29586 56.2482 4.8002 56.5145 4.262 56.644V56.6851C4.50563 56.7623 4.73138 56.8874 4.926 57.053C5.16182 57.274 5.36819 57.5243 5.54 57.798L6.116 58.643C6.24486 58.8415 6.38719 59.031 6.542 59.21C6.64627 59.3287 6.76881 59.4299 6.905 59.51C7.05791 59.5873 7.22361 59.6361 7.394 59.654V59.911H5.628C5.46333 59.7247 5.31005 59.5287 5.169 59.324C5.025 59.1134 4.883 58.9 4.743 58.684L4.184 57.82C4.05808 57.6191 3.91912 57.4267 3.768 57.244C3.68332 57.1411 3.5819 57.0532 3.468 56.984C3.37776 56.936 3.2806 56.9022 3.18 56.884C3.025 56.8622 2.8685 56.8528 2.712 56.856L2.009 56.857ZM2.009 53.351V56.4141H2.728C3.02934 56.4195 3.33057 56.3978 3.628 56.3491C3.85351 56.3081 4.06928 56.2249 4.264 56.104C4.46198 55.9795 4.62318 55.8046 4.731 55.597C4.85444 55.3518 4.9146 55.0795 4.906 54.805C4.91747 54.5212 4.84811 54.24 4.706 53.994C4.55413 53.7673 4.33477 53.5941 4.079 53.499C3.71555 53.3723 3.33163 53.3147 2.947 53.329C2.556 53.33 2.247 53.336 2.009 53.351V53.351Z" fill="url(#paint4_linear_443_2)"/>
<path id="Path 6" d="M14.625 52.876V54.436H14.002C13.9447 54.2843 13.8779 54.1363 13.802 53.993C13.7437 53.8791 13.6732 53.7718 13.592 53.673C13.5249 53.5914 13.4444 53.5217 13.354 53.467C13.2591 53.4122 13.1545 53.3762 13.046 53.361C12.9046 53.3402 12.7619 53.3305 12.619 53.332H10.612V56.032H11.972C12.121 56.0381 12.2699 56.0164 12.411 55.968C12.5192 55.923 12.6112 55.8463 12.675 55.748C12.7652 55.5971 12.8326 55.4336 12.875 55.263H13.475V57.243H12.875C12.8325 57.0781 12.7651 56.9205 12.675 56.776C12.6119 56.6788 12.5229 56.6012 12.418 56.552C12.2743 56.4998 12.1216 56.4771 11.969 56.485H10.609V59.459H12.586C12.7557 59.4623 12.9254 59.4475 13.092 59.415C13.2127 59.3892 13.3265 59.3381 13.426 59.265C13.5245 59.1885 13.6085 59.0951 13.674 58.989C13.7452 58.8772 13.8058 58.7591 13.855 58.636C13.903 58.514 13.97 58.336 14.055 58.103H14.684L14.564 59.914H8.679V59.662C8.8652 59.6358 9.04453 59.5736 9.207 59.479C9.29909 59.4079 9.36175 59.3054 9.383 59.191C9.41525 59.0038 9.42898 58.8139 9.424 58.624V54.166C9.42835 53.9927 9.41764 53.8194 9.392 53.648C9.37725 53.5564 9.34092 53.4697 9.286 53.395C9.23423 53.3325 9.16845 53.2832 9.094 53.251C8.95994 53.1983 8.82137 53.1577 8.68 53.13V52.877L14.625 52.876Z" fill="url(#paint5_linear_443_2)"/>
<path id="Path 7" d="M21.754 57.124C21.907 57.33 22.034 57.508 22.138 57.665C22.242 57.822 22.348 57.994 22.458 58.186H22.541C22.5197 57.9767 22.5007 57.561 22.484 56.939C22.4673 56.317 22.4587 55.754 22.458 55.25V54.165C22.4612 53.991 22.4529 53.8169 22.433 53.644C22.4207 53.5531 22.3864 53.4666 22.333 53.392C22.2839 53.3302 22.2204 53.2814 22.148 53.25C22.0155 53.1968 21.8782 53.1563 21.738 53.129V52.872H24.038V53.125C23.9015 53.1505 23.7676 53.1883 23.638 53.238C23.5651 53.2679 23.4996 53.3133 23.446 53.371C23.3898 53.4433 23.3518 53.528 23.335 53.618C23.3048 53.797 23.2924 53.9786 23.298 54.16V59.94H22.498L18.953 55.125C18.733 54.825 18.576 54.607 18.483 54.47C18.39 54.333 18.303 54.197 18.222 54.063H18.115C18.144 54.327 18.166 54.806 18.178 55.502C18.19 56.198 18.197 56.885 18.197 57.572V58.627C18.1931 58.7962 18.2028 58.9654 18.226 59.133C18.2401 59.2234 18.2743 59.3095 18.326 59.385C18.3762 59.4515 18.4422 59.5045 18.518 59.539C18.6542 59.5952 18.796 59.6367 18.941 59.663V59.909H16.626V59.657C16.8122 59.6307 16.9915 59.5685 17.154 59.474C17.2462 59.4032 17.3085 59.3004 17.329 59.186C17.3621 58.9989 17.3762 58.8089 17.371 58.619V54.161C17.3752 53.9877 17.3641 53.8143 17.338 53.643C17.324 53.5498 17.2872 53.4616 17.231 53.386C17.1792 53.3236 17.1134 53.2742 17.039 53.242C16.9049 53.1894 16.7663 53.1489 16.625 53.121V52.872H18.616L21.754 57.124Z" fill="url(#paint6_linear_443_2)"/>
<path id="Path 8" d="M25.659 52.876H32.539V54.67H31.919C31.8468 54.4292 31.7541 54.195 31.642 53.97C31.5701 53.8232 31.4726 53.6904 31.354 53.578C31.2589 53.4923 31.1473 53.427 31.026 53.386C30.855 53.3417 30.6785 53.3225 30.502 53.329H29.694V58.606C29.6901 58.7683 29.7038 58.9306 29.735 59.09C29.755 59.1946 29.7988 59.2931 29.863 59.378C29.9244 59.4521 30.004 59.509 30.094 59.543C30.243 59.5961 30.3967 59.6349 30.553 59.659V59.914H27.646V59.662C27.774 59.6387 27.8863 59.6127 27.983 59.584C28.0672 59.5627 28.1477 59.529 28.222 59.484C28.2836 59.4448 28.3358 59.3925 28.375 59.331C28.4233 59.2537 28.4572 59.1684 28.475 59.079C28.5026 58.9243 28.5146 58.7672 28.511 58.61V53.336H27.711C27.5458 53.3326 27.3807 53.3481 27.219 53.382C27.085 53.4154 26.9613 53.4813 26.859 53.574C26.7336 53.6928 26.6318 53.8343 26.559 53.991C26.4525 54.2104 26.3661 54.439 26.301 54.674H25.672L25.659 52.876Z" fill="url(#paint7_linear_443_2)"/>
<path id="Path 9" d="M40.996 59.996C40.5254 60.003 40.0565 59.9355 39.607 59.796C39.2049 59.6697 38.8371 59.4529 38.532 59.162C38.2188 58.8539 37.9813 58.4773 37.838 58.062C37.6642 57.5469 37.5813 57.0055 37.593 56.462C37.5742 55.7779 37.7228 55.0996 38.026 54.486C38.2998 53.9506 38.7317 53.5125 39.263 53.231C39.8395 52.9345 40.4808 52.7864 41.129 52.8C41.7854 52.7778 42.4373 52.915 43.029 53.2C43.5355 53.4608 43.9438 53.8787 44.193 54.391C44.4601 55.0176 44.5932 55.6932 44.5839 56.3742C44.5746 57.0553 44.4231 57.7269 44.139 58.346C43.859 58.8809 43.4183 59.3146 42.879 59.586C42.2926 59.8697 41.6473 60.0102 40.996 59.996V59.996ZM38.903 56.31C38.8487 57.1516 39.0472 57.9901 39.473 58.718C39.656 58.9867 39.9051 59.2037 40.1964 59.3481C40.4877 59.4924 40.8113 59.5592 41.136 59.542C41.5553 59.5541 41.967 59.4283 42.308 59.184C42.6507 58.9159 42.9033 58.5496 43.032 58.134C43.2026 57.6134 43.2844 57.0678 43.274 56.52C43.2925 55.887 43.1967 55.2559 42.991 54.657C42.8497 54.2287 42.5815 53.8534 42.222 53.581C41.886 53.3552 41.4887 53.2382 41.084 53.246C40.7435 53.2364 40.4058 53.3109 40.101 53.463C39.8262 53.608 39.5923 53.8198 39.421 54.079C39.2292 54.3733 39.0955 54.7015 39.027 55.046C38.9409 55.4617 38.8996 55.8855 38.904 56.31H38.903Z" fill="url(#paint8_linear_443_2)"/>
<path id="Path 10" d="M52.414 52.876V54.436H51.791C51.716 54.2401 51.6254 54.0504 51.52 53.869C51.4497 53.7434 51.3572 53.6316 51.247 53.539C51.1486 53.462 51.0346 53.4074 50.913 53.379C50.7486 53.3447 50.5809 53.3292 50.413 53.333H48.55V56.133H49.86C50.01 56.1395 50.1597 56.114 50.299 56.058C50.4103 56.0038 50.5024 55.9169 50.563 55.809C50.653 55.6382 50.7203 55.4563 50.763 55.268H51.363V57.443H50.763C50.7201 57.2589 50.6529 57.0813 50.563 56.915C50.5032 56.8079 50.414 56.7202 50.306 56.662C50.166 56.6046 50.0151 56.579 49.864 56.587H48.554V58.609C48.5499 58.7751 48.5647 58.9412 48.598 59.104C48.6202 59.2132 48.6709 59.3147 48.745 59.398C48.8202 59.4751 48.9143 59.5309 49.018 59.56C49.1577 59.6023 49.3 59.6358 49.444 59.66V59.913H46.614V59.661C46.8002 59.6347 46.9795 59.5726 47.142 59.478C47.2341 59.4071 47.2966 59.3044 47.317 59.19C47.3502 59.0029 47.3643 58.813 47.359 58.623V54.166C47.3631 53.9927 47.3521 53.8194 47.326 53.648C47.3134 53.5569 47.2791 53.4701 47.226 53.395C47.1742 53.3326 47.1084 53.2832 47.034 53.251C46.8999 53.1984 46.7613 53.1579 46.62 53.13V52.877L52.414 52.876Z" fill="url(#paint9_linear_443_2)"/>
<path id="Path 11" d="M57.129 52.876H64.009V54.67H63.386C63.3145 54.4291 63.2222 54.1949 63.11 53.97C63.0381 53.8232 62.9405 53.6905 62.822 53.578C62.7271 53.4925 62.6159 53.4272 62.495 53.386C62.3237 53.3418 62.1468 53.3226 61.97 53.329H61.162V58.606C61.1585 58.7686 61.1722 58.9312 61.203 59.091C61.2229 59.1955 61.2668 59.2941 61.331 59.379C61.3928 59.4531 61.4727 59.51 61.563 59.544C61.7116 59.5971 61.865 59.636 62.021 59.66V59.915H59.121V59.663C59.249 59.6397 59.3613 59.6137 59.458 59.585C59.5422 59.5637 59.6227 59.53 59.697 59.485C59.7585 59.4458 59.8108 59.3936 59.85 59.332C59.8983 59.2547 59.9321 59.1693 59.95 59.08C59.978 58.9253 59.9901 58.7681 59.986 58.611V53.336H59.186C59.0205 53.3326 58.8551 53.348 58.693 53.382C58.5593 53.4154 58.436 53.4814 58.334 53.574C58.2089 53.6931 58.1071 53.8345 58.034 53.991C57.9279 54.2105 57.8415 54.4391 57.776 54.674H57.129V52.876Z" fill="url(#paint10_linear_443_2)"/>
<path id="Path 12" d="M72.36 58.625C72.3577 58.7749 72.364 58.9248 72.379 59.074C72.3868 59.1566 72.4081 59.2373 72.442 59.313C72.4684 59.3687 72.505 59.4189 72.55 59.461C72.6041 59.5045 72.6654 59.5384 72.731 59.561C72.8502 59.6038 72.9726 59.6372 73.097 59.661V59.916H70.43V59.664C70.6006 59.6374 70.7657 59.5834 70.919 59.504C71.0144 59.442 71.083 59.3463 71.111 59.236C71.1558 59.0366 71.1743 58.8322 71.166 58.628V56.463H67.632V58.624C67.6279 58.7931 67.6372 58.9623 67.66 59.13C67.674 59.2204 67.7082 59.3065 67.76 59.382C67.8124 59.4496 67.8813 59.5026 67.96 59.536C68.0962 59.5922 68.238 59.6338 68.383 59.66V59.917H65.7V59.665C65.8862 59.6387 66.0655 59.5765 66.228 59.482C66.3198 59.4108 66.3822 59.3083 66.403 59.194C66.4357 59.0069 66.4494 58.8169 66.444 58.627V54.169C66.4482 53.9957 66.4376 53.8224 66.412 53.651C66.399 53.5599 66.3648 53.4733 66.312 53.398C66.26 53.3358 66.1942 53.2866 66.12 53.254C65.9859 53.2014 65.8473 53.1608 65.706 53.133V52.88H68.383V53.133C68.246 53.1563 68.1119 53.1942 67.983 53.246C67.9092 53.2785 67.8437 53.327 67.791 53.388C67.7337 53.4624 67.6962 53.5501 67.682 53.643C67.6547 53.8169 67.6434 53.993 67.648 54.169V55.992H71.184V54.169C71.1936 53.9628 71.175 53.7562 71.129 53.555C71.0989 53.4529 71.0351 53.3641 70.948 53.303C70.792 53.2188 70.623 53.1613 70.448 53.133V52.88H73.112V53.133C72.9373 53.1581 72.7682 53.2129 72.612 53.295C72.5161 53.3579 72.4476 53.4547 72.42 53.566C72.3789 53.7632 72.3618 53.9647 72.369 54.166L72.36 58.625Z" fill="url(#paint11_linear_443_2)"/>
<path id="Path 13" d="M77.086 58.625C77.0824 58.7941 77.0918 58.9633 77.114 59.131C77.128 59.2215 77.1621 59.3075 77.214 59.383C77.2641 59.4495 77.3302 59.5025 77.406 59.537C77.5422 59.5932 77.684 59.6347 77.829 59.661V59.914H75.138V59.662C75.3242 59.6359 75.5035 59.5737 75.666 59.479C75.7581 59.4079 75.8208 59.3054 75.842 59.191C75.8743 59.0038 75.888 58.8139 75.883 58.624V54.166C75.8877 53.9927 75.8767 53.8193 75.85 53.648C75.8374 53.5569 75.8031 53.4701 75.75 53.395C75.6982 53.3326 75.6325 53.2832 75.558 53.251C75.4239 53.1984 75.2854 53.1579 75.144 53.13V52.877H77.828V53.13C77.6911 53.1535 77.557 53.1914 77.428 53.243C77.3514 53.2744 77.2829 53.323 77.228 53.385C77.171 53.4595 77.1338 53.5472 77.12 53.64C77.0926 53.8139 77.0812 53.99 77.086 54.166V58.625Z" fill="url(#paint12_linear_443_2)"/>
<path id="Path 14" d="M84.974 57.124C85.127 57.33 85.254 57.508 85.358 57.665C85.462 57.822 85.569 57.994 85.678 58.186H85.762C85.7407 57.9767 85.7213 57.561 85.704 56.939C85.6867 56.317 85.678 55.754 85.678 55.25V54.166C85.6817 53.9919 85.6734 53.8179 85.653 53.645C85.6409 53.5541 85.6065 53.4675 85.553 53.393C85.5044 53.331 85.4412 53.2823 85.369 53.251C85.2361 53.198 85.0985 53.1575 84.958 53.13V52.877H87.247V53.13C87.1105 53.1554 86.9766 53.1933 86.847 53.243C86.7741 53.2729 86.7086 53.3183 86.655 53.376C86.5992 53.4485 86.5612 53.5331 86.544 53.623C86.5138 53.802 86.5014 53.9836 86.507 54.165V59.945H85.717L82.176 55.13C81.9553 54.8306 81.7984 54.6123 81.705 54.475C81.605 54.338 81.525 54.202 81.444 54.068H81.337C81.3663 54.3346 81.3874 54.8143 81.4 55.507C81.4127 56.1997 81.419 56.8897 81.419 57.577V58.636C81.4152 58.8052 81.4248 58.9744 81.448 59.142C81.4625 59.2323 81.4966 59.3183 81.548 59.394C81.6005 59.4614 81.6694 59.5144 81.748 59.548C81.8838 59.6043 82.0253 59.6458 82.17 59.672V59.918H79.842V59.666C80.0282 59.6398 80.2075 59.5777 80.37 59.483C80.4621 59.4119 80.5248 59.3094 80.546 59.195C80.5782 59.0078 80.5919 58.8179 80.587 58.628V54.166C80.5913 53.9927 80.5806 53.8194 80.555 53.648C80.5403 53.5564 80.5039 53.4697 80.449 53.395C80.3972 53.3325 80.3315 53.2832 80.257 53.251C80.1233 53.1983 79.985 53.1578 79.844 53.13V52.877H81.835L84.974 57.124Z" fill="url(#paint13_linear_443_2)"/>
<path id="Path 15" d="M95.296 59.889L94.796 59.997L94.333 59.597C94.0587 59.7328 93.7685 59.8336 93.469 59.897C93.1282 59.9668 92.7809 60.0003 92.433 59.997C91.9887 60.0302 91.5424 59.9675 91.1244 59.8133C90.7063 59.659 90.3263 59.4168 90.01 59.103C89.4153 58.3502 89.1244 57.4018 89.195 56.445C89.1804 55.775 89.3334 55.112 89.64 54.516C89.9281 53.972 90.3735 53.5273 90.918 53.24C91.5242 52.9298 92.1982 52.7758 92.879 52.792C93.273 52.792 93.6523 52.8104 94.017 52.847C94.425 52.8903 94.8306 52.9544 95.232 53.039V54.457H94.603C94.514 54.1923 94.3759 53.9466 94.196 53.733C94.0437 53.5626 93.8497 53.4348 93.633 53.362C93.3641 53.2809 93.0838 53.2434 92.803 53.251C92.3704 53.2426 91.9458 53.3688 91.588 53.612C91.2193 53.8801 90.9374 54.2504 90.777 54.677C90.5715 55.2196 90.4736 55.797 90.489 56.377C90.4761 56.9622 90.5588 57.5456 90.734 58.104C90.8613 58.5296 91.1153 58.9063 91.462 59.184C91.8073 59.4332 92.2254 59.5609 92.651 59.547C93.0404 59.5757 93.4293 59.4832 93.764 59.282C93.8871 59.1862 93.9846 59.0615 94.0479 58.919C94.1112 58.7765 94.1384 58.6205 94.127 58.465V58.156C94.1359 57.9304 94.1157 57.7045 94.067 57.484C94.0333 57.357 93.9584 57.2448 93.854 57.165C93.7016 57.0699 93.5315 57.0066 93.354 56.979V56.727H95.923V56.979C95.8013 57.0072 95.6851 57.0551 95.579 57.121C95.505 57.1721 95.4448 57.2408 95.404 57.321C95.3607 57.4118 95.3327 57.5091 95.321 57.609C95.3042 57.7725 95.2968 57.9367 95.299 58.101L95.296 59.889Z" fill="url(#paint14_linear_443_2)"/>
<path id="Path 16" d="M98.266 58.31C98.3299 58.57 98.4467 58.8141 98.609 59.027C98.7567 59.2051 98.9498 59.3399 99.168 59.417C99.4532 59.5097 99.7523 59.5523 100.052 59.543C100.457 59.5694 100.859 59.4589 101.194 59.229C101.329 59.1186 101.435 58.9777 101.505 58.8182C101.574 58.6586 101.605 58.4848 101.594 58.311C101.602 58.0831 101.545 57.8576 101.429 57.661C101.289 57.4575 101.104 57.2882 100.889 57.166C100.522 56.9558 100.139 56.7749 99.744 56.625C99.3338 56.469 98.9399 56.273 98.568 56.04C98.3113 55.8804 98.0912 55.6684 97.922 55.418C97.7814 55.1999 97.7074 54.9455 97.709 54.686C97.7022 54.3242 97.8202 53.9711 98.043 53.686C98.3005 53.3787 98.64 53.1509 99.022 53.029C99.4979 52.8671 99.9983 52.7886 100.501 52.797C100.823 52.797 101.138 52.811 101.445 52.838C101.832 52.8782 102.216 52.9404 102.596 53.024V54.416H101.967C101.893 54.1578 101.768 53.9173 101.598 53.709C101.459 53.547 101.278 53.4251 101.076 53.356C100.825 53.2819 100.563 53.2482 100.301 53.256C100.049 53.2518 99.7975 53.2934 99.56 53.379C99.3551 53.4515 99.1753 53.5813 99.042 53.753C98.9118 53.9254 98.844 54.137 98.85 54.353C98.8427 54.5707 98.899 54.7858 99.012 54.972C99.1445 55.1633 99.3173 55.3233 99.518 55.441C99.8423 55.6318 100.183 55.7941 100.535 55.926C100.973 56.0939 101.395 56.2991 101.798 56.539C102.073 56.7057 102.311 56.9261 102.498 57.187C102.667 57.4369 102.755 57.7333 102.748 58.035C102.758 58.3526 102.686 58.6675 102.539 58.949C102.4 59.198 102.199 59.4075 101.957 59.558C101.683 59.7244 101.382 59.8397 101.067 59.898C100.693 59.9716 100.313 60.0071 99.932 60.004C99.1581 59.991 98.3874 59.8995 97.632 59.731V58.314L98.266 58.31Z" fill="url(#paint15_linear_443_2)"/>
</g>
<defs>
<linearGradient id="paint0_linear_443_2" x1="-35.7083" y1="-0.301039" x2="183.125" y2="35.3917" gradientUnits="userSpaceOnUse">
<stop stop-color="#BC8B46"/>
<stop offset="0.28" stop-color="#94672E"/>
<stop offset="0.43" stop-color="#C8914A"/>
<stop offset="0.56" stop-color="#EEB05E"/>
<stop offset="0.63" stop-color="#FDBC66"/>
<stop offset="0.71" stop-color="#EBAE5D"/>
<stop offset="0.87" stop-color="#BE8944"/>
<stop offset="1" stop-color="#94672E"/>
</linearGradient>
<linearGradient id="paint1_linear_443_2" x1="-37.871" y1="8.48523" x2="180.954" y2="44.7558" gradientUnits="userSpaceOnUse">
<stop stop-color="#BC8B46"/>
<stop offset="0.28" stop-color="#94672E"/>
<stop offset="0.43" stop-color="#C8914A"/>
<stop offset="0.56" stop-color="#EEB05E"/>
<stop offset="0.63" stop-color="#FDBC66"/>
<stop offset="0.71" stop-color="#EBAE5D"/>
<stop offset="0.87" stop-color="#BE8944"/>
<stop offset="1" stop-color="#94672E"/>
</linearGradient>
<linearGradient id="paint2_linear_443_2" x1="-38.508" y1="11.8129" x2="180.544" y2="45.1045" gradientUnits="userSpaceOnUse">
<stop stop-color="#94672E"/>
<stop offset="1" stop-color="#FDBC66"/>
</linearGradient>
<linearGradient id="paint3_linear_443_2" x1="-34.1787" y1="-7.37466" x2="185.05" y2="22.2589" gradientUnits="userSpaceOnUse">
<stop stop-color="#BC8B46"/>
<stop offset="0.28" stop-color="#94672E"/>
<stop offset="0.43" stop-color="#C8914A"/>
<stop offset="0.56" stop-color="#EEB05E"/>
<stop offset="0.63" stop-color="#FDBC66"/>
<stop offset="0.71" stop-color="#EBAE5D"/>
<stop offset="0.87" stop-color="#BE8944"/>
<stop offset="1" stop-color="#94672E"/>
</linearGradient>
<linearGradient id="paint4_linear_443_2" x1="-46.4227" y1="44.8039" x2="168.868" y2="100.314" gradientUnits="userSpaceOnUse">
<stop stop-color="#BC8B46"/>
<stop offset="0.28" stop-color="#94672E"/>
<stop offset="0.43" stop-color="#C8914A"/>
<stop offset="0.56" stop-color="#EEB05E"/>
<stop offset="0.63" stop-color="#FDBC66"/>
<stop offset="0.71" stop-color="#EBAE5D"/>
<stop offset="0.87" stop-color="#BE8944"/>
<stop offset="1" stop-color="#94672E"/>
</linearGradient>
<linearGradient id="paint5_linear_443_2" x1="-45.8644" y1="42.6569" x2="172.619" y2="80.6457" gradientUnits="userSpaceOnUse">
<stop stop-color="#BC8B46"/>
<stop offset="0.28" stop-color="#94672E"/>
<stop offset="0.43" stop-color="#C8914A"/>
<stop offset="0.56" stop-color="#EEB05E"/>
<stop offset="0.63" stop-color="#FDBC66"/>
<stop offset="0.71" stop-color="#EBAE5D"/>
<stop offset="0.87" stop-color="#BE8944"/>
<stop offset="1" stop-color="#94672E"/>
</linearGradient>
<linearGradient id="paint6_linear_443_2" x1="-45.4366" y1="40.6937" x2="169.43" y2="97.1014" gradientUnits="userSpaceOnUse">
<stop stop-color="#BC8B46"/>
<stop offset="0.28" stop-color="#94672E"/>
<stop offset="0.43" stop-color="#C8914A"/>
<stop offset="0.56" stop-color="#EEB05E"/>
<stop offset="0.63" stop-color="#FDBC66"/>
<stop offset="0.71" stop-color="#EBAE5D"/>
<stop offset="0.87" stop-color="#BE8944"/>
<stop offset="1" stop-color="#94672E"/>
</linearGradient>
<linearGradient id="paint7_linear_443_2" x1="-44.9708" y1="38.4763" x2="171.777" y2="87.9147" gradientUnits="userSpaceOnUse">
<stop stop-color="#BC8B46"/>
<stop offset="0.28" stop-color="#94672E"/>
<stop offset="0.43" stop-color="#C8914A"/>
<stop offset="0.56" stop-color="#EEB05E"/>
<stop offset="0.63" stop-color="#FDBC66"/>
<stop offset="0.71" stop-color="#EBAE5D"/>
<stop offset="0.87" stop-color="#BE8944"/>
<stop offset="1" stop-color="#94672E"/>
</linearGradient>
<linearGradient id="paint8_linear_443_2" x1="-44.3663" y1="36.009" x2="172.404" y2="84.8116" gradientUnits="userSpaceOnUse">
<stop stop-color="#BC8B46"/>
<stop offset="0.28" stop-color="#94672E"/>
<stop offset="0.43" stop-color="#C8914A"/>
<stop offset="0.56" stop-color="#EEB05E"/>
<stop offset="0.63" stop-color="#FDBC66"/>
<stop offset="0.71" stop-color="#EBAE5D"/>
<stop offset="0.87" stop-color="#BE8944"/>
<stop offset="1" stop-color="#94672E"/>
</linearGradient>
<linearGradient id="paint9_linear_443_2" x1="-43.9934" y1="34.0873" x2="174.919" y2="69.5657" gradientUnits="userSpaceOnUse">
<stop stop-color="#BC8B46"/>
<stop offset="0.28" stop-color="#94672E"/>
<stop offset="0.43" stop-color="#C8914A"/>
<stop offset="0.56" stop-color="#EEB05E"/>
<stop offset="0.63" stop-color="#FDBC66"/>
<stop offset="0.71" stop-color="#EBAE5D"/>
<stop offset="0.87" stop-color="#BE8944"/>
<stop offset="1" stop-color="#94672E"/>
</linearGradient>
<linearGradient id="paint10_linear_443_2" x1="-43.3535" y1="31.3507" x2="173.406" y2="80.7829" gradientUnits="userSpaceOnUse">
<stop stop-color="#BC8B46"/>
<stop offset="0.28" stop-color="#94672E"/>
<stop offset="0.43" stop-color="#C8914A"/>
<stop offset="0.56" stop-color="#EEB05E"/>
<stop offset="0.63" stop-color="#FDBC66"/>
<stop offset="0.71" stop-color="#EBAE5D"/>
<stop offset="0.87" stop-color="#BE8944"/>
<stop offset="1" stop-color="#94672E"/>
</linearGradient>
<linearGradient id="paint11_linear_443_2" x1="-43.1005" y1="29.5873" x2="172.053" y2="86.4743" gradientUnits="userSpaceOnUse">
<stop stop-color="#BC8B46"/>
<stop offset="0.28" stop-color="#94672E"/>
<stop offset="0.43" stop-color="#C8914A"/>
<stop offset="0.56" stop-color="#EEB05E"/>
<stop offset="0.63" stop-color="#FDBC66"/>
<stop offset="0.71" stop-color="#EBAE5D"/>
<stop offset="0.87" stop-color="#BE8944"/>
<stop offset="1" stop-color="#94672E"/>
</linearGradient>
<linearGradient id="paint12_linear_443_2" x1="-42.7027" y1="27.9801" x2="175.304" y2="35.581" gradientUnits="userSpaceOnUse">
<stop stop-color="#BC8B46"/>
<stop offset="0.28" stop-color="#94672E"/>
<stop offset="0.43" stop-color="#C8914A"/>
<stop offset="0.56" stop-color="#EEB05E"/>
<stop offset="0.63" stop-color="#FDBC66"/>
<stop offset="0.71" stop-color="#EBAE5D"/>
<stop offset="0.87" stop-color="#BE8944"/>
<stop offset="1" stop-color="#94672E"/>
</linearGradient>
<linearGradient id="paint13_linear_443_2" x1="-42.1485" y1="26.3791" x2="172.739" y2="82.705" gradientUnits="userSpaceOnUse">
<stop stop-color="#BC8B46"/>
<stop offset="0.28" stop-color="#94672E"/>
<stop offset="0.43" stop-color="#C8914A"/>
<stop offset="0.56" stop-color="#EEB05E"/>
<stop offset="0.63" stop-color="#FDBC66"/>
<stop offset="0.71" stop-color="#EBAE5D"/>
<stop offset="0.87" stop-color="#BE8944"/>
<stop offset="1" stop-color="#94672E"/>
</linearGradient>
<linearGradient id="paint14_linear_443_2" x1="-42.0527" y1="24.177" x2="175.991" y2="69.5437" gradientUnits="userSpaceOnUse">
<stop stop-color="#BC8B46"/>
<stop offset="0.28" stop-color="#94672E"/>
<stop offset="0.43" stop-color="#C8914A"/>
<stop offset="0.56" stop-color="#EEB05E"/>
<stop offset="0.63" stop-color="#FDBC66"/>
<stop offset="0.71" stop-color="#EBAE5D"/>
<stop offset="0.87" stop-color="#BE8944"/>
<stop offset="1" stop-color="#94672E"/>
</linearGradient>
<linearGradient id="paint15_linear_443_2" x1="-41.2581" y1="22.6031" x2="177.886" y2="48.9861" gradientUnits="userSpaceOnUse">
<stop stop-color="#BC8B46"/>
<stop offset="0.28" stop-color="#94672E"/>
<stop offset="0.43" stop-color="#C8914A"/>
<stop offset="0.56" stop-color="#EEB05E"/>
<stop offset="0.63" stop-color="#FDBC66"/>
<stop offset="0.71" stop-color="#EBAE5D"/>
<stop offset="0.87" stop-color="#BE8944"/>
<stop offset="1" stop-color="#94672E"/>
</linearGradient>
<clipPath id="clip0_443_2">
<rect width="102.746" height="60" fill="white"/>
</clipPath>
</defs>
</svg>
