<svg id="Group_4494" data-name="Group 4494" xmlns="http://www.w3.org/2000/svg" width="70.296" height="70.296" viewBox="0 0 70.296 70.296">
  <g id="messages_bulk" data-name="messages/bulk">
    <g id="vuesax_bulk_messages" data-name="vuesax/bulk/messages">
      <g id="messages">
        <path id="Vector" d="M0,0H70.3V70.3H0Z" fill="none" opacity="0"/>
        <path id="Vector-2" data-name="Vector" d="M43.935,20.5c0,11.335-9.841,20.5-21.968,20.5l-2.724,3.28L17.633,46.22a2.945,2.945,0,0,1-4.921-.674L8.787,36.906A20.076,20.076,0,0,1,0,20.5C0,9.168,9.841,0,21.968,0A22.009,22.009,0,0,1,41.885,11.921,18.916,18.916,0,0,1,43.935,20.5Z" transform="translate(5.858 5.858)" fill="#bc8b46" opacity="0.4"/>
        <path id="Vector-3" data-name="Vector" d="M39.337,19.888a20.076,20.076,0,0,1-8.787,16.4l-3.925,8.64A2.932,2.932,0,0,1,21.7,45.6l-4.335-5.214A22.265,22.265,0,0,1,0,32.366l2.724-3.28c12.126,0,21.968-9.168,21.968-20.5A18.916,18.916,0,0,0,22.641,0C32.219,2.2,39.337,10.281,39.337,19.888Z" transform="translate(25.102 17.779)" fill="#bc8b46"/>
        <g id="Group" transform="translate(18.306 24.164)">
          <path id="Vector-4" data-name="Vector" d="M16.842,4.394H2.2A2.213,2.213,0,0,1,0,2.2,2.213,2.213,0,0,1,2.2,0H16.842a2.213,2.213,0,0,1,2.2,2.2A2.213,2.213,0,0,1,16.842,4.394Z" fill="#bc8b46"/>
        </g>
      </g>
    </g>
  </g>
</svg>
