<svg id="Group_4571" data-name="Group 4571" xmlns="http://www.w3.org/2000/svg" width="50" height="50" viewBox="0 0 50 50">
  <g id="mobile_bulk" data-name="mobile/bulk">
    <g id="vuesax_bulk_mobile" data-name="vuesax/bulk/mobile">
      <g id="mobile">
        <path id="Vector" d="M25.6,0H7.864C2.091,0,0,2.087,0,7.95V33.782c0,5.863,2.091,7.95,7.864,7.95H25.578c5.793,0,7.885-2.087,7.885-7.95V7.95C33.463,2.087,31.371,0,25.6,0Z" transform="translate(8.269 4.134)" fill="#bc8b46" opacity="0.4"/>
        <path id="Vector-2" data-name="Vector" d="M9.819,3.1H1.55A1.562,1.562,0,0,1,0,1.55,1.562,1.562,0,0,1,1.55,0H9.819a1.562,1.562,0,0,1,1.55,1.55A1.562,1.562,0,0,1,9.819,3.1Z" transform="translate(19.315 9.901)" fill="#bc8b46"/>
        <path id="Vector-3" data-name="Vector" d="M7.235,3.617A3.617,3.617,0,1,1,3.617,0,3.617,3.617,0,0,1,7.235,3.617Z" transform="translate(21.383 32.96)" fill="#bc8b46"/>
        <path id="Vector-4" data-name="Vector" d="M0,0H50V50H0Z" fill="none" opacity="0"/>
      </g>
    </g>
  </g>
</svg>
