<svg xmlns="http://www.w3.org/2000/svg" width="112.963" height="96.326"><path data-name="Path 281" d="m47.827 48.347-21.355-7.955a9.433 9.433 0 0 1-5.546-12.132.724.724 0 0 1 .931-.425l20 7.45a10.157 10.157 0 0 1 5.97 13.062z" fill="#8c818f"/><ellipse data-name="Ellipse 20" cx="19.206" cy="19.091" rx="19.206" ry="19.091" transform="translate(0 58.144)" fill="#8c818f"/><ellipse data-name="Ellipse 21" cx="10.899" cy="10.834" rx="10.899" ry="10.834" transform="translate(8.307 66.402)" fill="#fff"/><ellipse data-name="Ellipse 22" cx="19.206" cy="19.091" rx="19.206" ry="19.091" transform="translate(74.552 58.144)" fill="#8c818f"/><path data-name="Path 282" d="M19.205 58.144a19.413 19.413 0 0 0-3.409.306 19.068 19.068 0 0 1 0 37.57 19.41 19.41 0 0 0 3.409.306 19.091 19.091 0 1 0 0-38.182z" fill="#766d78"/><path data-name="Path 283" d="M93.529 58.144a19.408 19.408 0 0 0-3.3.286 19.069 19.069 0 0 1 0 37.611 19.407 19.407 0 0 0 3.3.286 19.091 19.091 0 1 0 0-38.182z" fill="#766d78"/><ellipse data-name="Ellipse 23" cx="10.899" cy="10.834" rx="10.899" ry="10.834" transform="translate(82.859 66.402)" fill="#fff"/><path data-name="Path 284" d="M91.741 79.067 76.049 32.389a5.73 5.73 0 0 0-2.131-2.858l-6.287-4.429 3.188-4.462 8.446 5.444a5.73 5.73 0 0 1 2.327 2.99l16.131 47.983a3.155 3.155 0 0 1-5.982 2.011z" fill="#c8c3ca"/><circle data-name="Ellipse 24" cx="5.2" cy="5.2" r="5.2" transform="rotate(-45 56.5 -61.828)" fill="#a29aa5"/><path data-name="Path 285" d="m20.482 76.454 16.1-28.279 8.959 6.383-15.748 27.338z" fill="#b1abb4"/><path data-name="Path 286" d="m50.234 84.055-29.263-3.087a2.122 2.122 0 0 1-1.9-2.11v-1.5a2.122 2.122 0 0 1 1.606-2.058l27.273-6.837a7.883 7.883 0 0 1 2.283 15.6z" fill="#e3e0e4"/><path data-name="Path 287" d="M64.192 33.529q.7-.024 1.408-.005a22.884 22.884 0 0 1 8.5 1.886l5.142 2.233 4.369-4.3a5.255 5.255 0 0 1 6.792-.5l7.808 5.719c2.038 1.493-1.459 3.76-1.425 6.045.032 2.18 3.686 4.378 1.847 5.935L82.671 64.057a20.02 20.02 0 0 0-7.084 15.279 4.91 4.91 0 0 1-4.91 4.91H45.133a2.625 2.625 0 0 1-1.749-4.582l6.405-5.724a2.625 2.625 0 0 0 .876-1.957v-7.646a2.625 2.625 0 0 0-1.337-2.287L13.066 41.633a.473.473 0 0 1-.075-.773 16.19 16.19 0 0 1 17.054-2.483l11.236 4.973a5.064 5.064 0 0 0 5.972-1.427 22.89 22.89 0 0 1 16.939-8.394" fill="#f7d958"/><path data-name="Path 288" d="m98.206 38.564-7.808-5.719a5.253 5.253 0 0 0-6.5.233l7.49 5.486a7.631 7.631 0 0 1 .422 11.98L75.847 64.059a20.02 20.02 0 0 0-7.084 15.279 4.91 4.91 0 0 1-4.91 4.91h6.819a4.91 4.91 0 0 0 4.91-4.91 20.021 20.021 0 0 1 7.084-15.279l15.962-13.515c1.845-1.562-1.809-3.768-1.847-5.955s3.54-4.355 1.665-5.842q-.118-.093-.24-.183z" fill="#f3c625"/><path data-name="Path 289" d="m98.442 38.749-9.237 2.345a4.141 4.141 0 0 0 .448 8.115l9.056 1.259a7.628 7.628 0 0 0-.268-11.719z" fill="#fff"/><path data-name="Path 290" d="m98.444 38.749-5.467 1.388a7.637 7.637 0 0 1-.265 9.5l6 .834a7.628 7.628 0 0 0-.268-11.722z" fill="#e7e7e7"/><g data-name="Group 119" fill="#f3c625"><path data-name="Path 292" d="M66.752 69.608a1.486 1.486 0 0 1-1.274-.718l-3.643-6.031a26.46 26.46 0 0 0-14.219-11.393l-4.693-1.574a1.486 1.486 0 0 1 .945-2.818l4.693 1.574a29.436 29.436 0 0 1 15.818 12.674l3.643 6.031a1.486 1.486 0 0 1-1.271 2.254z"/><path data-name="Path 293" d="M52.178 81.865a1.445 1.445 0 0 1-1.022-2.466l4.972-4.972a1.445 1.445 0 1 1 2.043 2.043l-4.972 4.972a1.441 1.441 0 0 1-1.021.423z"/><path data-name="Path 294" d="M59.966 81.865a1.445 1.445 0 0 1-1.022-2.466l4.972-4.972a1.445 1.445 0 0 1 2.043 2.043l-4.972 4.972a1.44 1.44 0 0 1-1.021.423z"/></g></svg>