<svg width="60" height="60" viewBox="0 0 60 60" fill="none" xmlns="http://www.w3.org/2000/svg">
<style>
#rotate,#rotate_2{transform-origin:center;transform-box:fill-box}#rotate{animation:spin 4s linear infinite}#rotate_2{animation:rotation 2s linear infinite}@keyframes rotation{0%{transform:rotate(0deg)}50%{transform:rotate(10deg)}100%{transform:rotate(0deg)}}@keyframes spin{0%{transform:rotate(0deg)}100%{transform:rotate(360deg)}}
</style>
<g id="Group 4369 1" clip-path="url(#clip0_476_2)">
<g id="Group 4369">
<g id="magic-star/bulk">
<g id="vuesax/bulk/magic-star">
<g id="magic-star">
<g id="rotate">
<path id="Vector" d="M49.385 42.999L39.946 42.825C39.221 42.8502 38.5094 43.0273 37.8572 43.345C37.205 43.6626 36.6268 44.1137 36.16 44.669L31.478 50.847C28.489 54.808 24.828 54.16 23.334 49.427L20.819 41.38C20.5443 40.649 20.1083 39.9893 19.5433 39.4502C18.9784 38.911 18.2991 38.5062 17.556 38.266L10.234 36.348C4.456 34.828 3.883 31.042 8.964 27.903L16.064 23.518C16.7381 23.0473 17.2892 22.4213 17.6706 21.693C18.0521 20.9646 18.2529 20.1552 18.256 19.333L17.833 11.012C17.533 5.058 20.971 3.364 25.504 7.25L31.232 12.183C31.85 12.6584 32.5674 12.9882 33.3306 13.1479C34.0938 13.3075 34.8832 13.2929 35.64 13.105L43.681 10.589C48.413 9.119 51.028 11.76 49.481 16.468L47.065 23.817C46.877 24.5173 46.8376 25.2491 46.9492 25.9655C47.0608 26.6819 47.3209 27.3671 47.713 27.977L53.242 35.65C56.234 39.786 54.49 43.099 49.385 42.999Z" fill="#F0B25F"/>
</g>
<path id="rotate_2" opacity="0.4" d="M8.669 53.339L16.111 45.897C16.4266 45.5465 16.5956 45.0884 16.5832 44.6169C16.5709 44.1455 16.3781 43.6968 16.0447 43.3633C15.7112 43.0299 15.2625 42.8371 14.7911 42.8248C14.3196 42.8124 13.8615 42.9814 13.511 43.297L6.069 50.739C5.89822 50.9097 5.76275 51.1123 5.67032 51.3354C5.5779 51.5585 5.53032 51.7975 5.53032 52.039C5.53032 52.2804 5.5779 52.5195 5.67032 52.7426C5.76275 52.9657 5.89822 53.1683 6.069 53.339C6.41563 53.6803 6.88256 53.8715 7.369 53.8715C7.85543 53.8715 8.32236 53.6803 8.669 53.339V53.339Z" fill="#F0B25F"/>
</g>
</g>
</g>
</g>
</g>
<defs>
<clipPath id="clip0_476_2">
<rect width="59.626" height="59.626" fill="white"/>
</clipPath>
</defs>
</svg>
