<svg xmlns="http://www.w3.org/2000/svg" width="24" height="24" viewBox="0 0 24 24">
  <g id="Group_4301" data-name="Group 4301" transform="translate(-310 -138)">
    <g id="back-square_twotone" data-name="back-square/twotone" transform="translate(310 138)">
      <g id="vuesax_twotone_back-square" data-name="vuesax/twotone/back-square">
        <g id="back-square">
          <path id="Vector" d="M7,20h6c5,0,7-2,7-7V7c0-5-2-7-7-7H7C2,0,0,2,0,7v6C0,18,2,20,7,20Z" transform="translate(2 2)" fill="none" stroke="#bc8b46" stroke-linecap="round" stroke-linejoin="round" stroke-width="1.5"/>
          <g id="Group_46" data-name="Group 46" opacity="0.4">
            <path id="Vector-2" data-name="Vector" d="M1.85,6.16H6.77A3.08,3.08,0,1,0,6.77,0H0" transform="translate(7.15 9.22)" fill="none" stroke="#bc8b46" stroke-linecap="round" stroke-linejoin="round" stroke-width="1.5"/>
            <path id="Vector-3" data-name="Vector" d="M1.57,3.15,0,1.57,1.57,0" transform="translate(7 7.62)" fill="none" stroke="#bc8b46" stroke-linecap="round" stroke-linejoin="round" stroke-width="1.5"/>
          </g>
          <path id="Vector-4" data-name="Vector" d="M0,0H24V24H0Z" fill="none" opacity="0"/>
        </g>
      </g>
    </g>
  </g>
</svg>
