<svg width="24" height="24" viewBox="0 0 24 24" fill="none" xmlns="http://www.w3.org/2000/svg">
<style>
#pop{transform-origin:center;transform-box:fill-box;animation:pulsecust 2s linear infinite}@keyframes pulsecust{0%{transform:scale(1)}50%{transform:scale(1.4)}100%{transform:scale(1)}}
</style>
<g id="reactive_request 1">
<g id="Group 4301">
<g id="back-square/twotone">
<g id="vuesax/twotone/back-square">
<g id="back-square">
<path id="Vector" d="M9 22H15C20 22 22 20 22 15V9C22 4 20 2 15 2H9C4 2 2 4 2 9V15C2 20 4 22 9 22Z" stroke="#BC8B46" stroke-width="1.5" stroke-linecap="round" stroke-linejoin="round"/>
<g id="pop" opacity="0.4">
<path id="Vector_2" opacity="0.4" d="M9 15.38H13.92C14.7369 15.38 15.5203 15.0555 16.0979 14.4779C16.6755 13.9003 17 13.1169 17 12.3C17 11.4831 16.6755 10.6997 16.0979 10.1221C15.5203 9.5445 14.7369 9.22 13.92 9.22H7.15" stroke="#BC8B46" stroke-width="1.5" stroke-linecap="round" stroke-linejoin="round"/>
<path id="Vector_3" opacity="0.4" d="M8.57 10.77L7 9.19L8.57 7.62" stroke="#BC8B46" stroke-width="1.5" stroke-linecap="round" stroke-linejoin="round"/>
</g>
</g>
</g>
</g>
</g>
</g>
</svg>
