<svg xmlns="http://www.w3.org/2000/svg" width="24" height="24" viewBox="0 0 24 24">
  <g id="Group_4299" data-name="Group 4299" transform="translate(-375 -195)">
    <g id="task-square_twotone" data-name="task-square/twotone" transform="translate(375 195)">
      <g id="vuesax_twotone_task-square" data-name="vuesax/twotone/task-square">
        <g id="task-square">
          <path id="Vector" d="M0,0H5.25" transform="translate(12.37 8.88)" fill="none" stroke="#bc8b46" stroke-linecap="round" stroke-linejoin="round" stroke-width="1.5" opacity="0.4"/>
          <path id="Vector-2" data-name="Vector" d="M0,1.5l.75.75L3,0" transform="translate(6.38 7.38)" fill="none" stroke="#bc8b46" stroke-linecap="round" stroke-linejoin="round" stroke-width="1.5" opacity="0.4"/>
          <path id="Vector-3" data-name="Vector" d="M0,0H5.25" transform="translate(12.37 15.88)" fill="none" stroke="#bc8b46" stroke-linecap="round" stroke-linejoin="round" stroke-width="1.5" opacity="0.4"/>
          <path id="Vector-4" data-name="Vector" d="M0,1.5l.75.75L3,0" transform="translate(6.38 14.38)" fill="none" stroke="#bc8b46" stroke-linecap="round" stroke-linejoin="round" stroke-width="1.5" opacity="0.4"/>
          <path id="Vector-5" data-name="Vector" d="M7,20h6c5,0,7-2,7-7V7c0-5-2-7-7-7H7C2,0,0,2,0,7v6C0,18,2,20,7,20Z" transform="translate(2 2)" fill="none" stroke="#bc8b46" stroke-linecap="round" stroke-linejoin="round" stroke-width="1.5"/>
          <path id="Vector-6" data-name="Vector" d="M0,0H24V24H0Z" fill="none" opacity="0"/>
        </g>
      </g>
    </g>
  </g>
</svg>
