<svg xmlns="http://www.w3.org/2000/svg" width="56.27" height="80"><path data-name="Rectangle 47" fill="#34495e" d="M14.287 9.783h12.504v25.008H14.287z"/><path data-name="Path 214" d="M26.788 19.77v15.022c1.716-2.581 4.088-4.178 6.713-4.178 5.225 0 9.46 6.343 9.46 14.165 0 5.718-2.262 10.642-5.523 12.881h-2.492v-3.752h-8.158v1.877h2.252v13.876c11.028-1.291 19.63-11.936 19.63-24.882.005-13.811-9.792-25.009-21.882-25.009z" fill="#bcd4e8"/><path data-name="Rectangle 48" fill="#283a4d" d="M17.163 56.1h6.75v5.001h-6.75z"/><g data-name="Group 112" fill="#34495e"><path data-name="Rectangle 49" d="M14.287 57.66h20.661v1.873H14.287z"/><path data-name="Rectangle 50" d="M7.595 51.408h27.352v2.501H7.595z"/></g><g data-name="Group 113" fill="#bcd4e8"><path data-name="Rectangle 51" d="M16.102 34.792h8.876v7.786h-8.876z"/><path data-name="Rectangle 52" d="M16.102 2h8.876v7.782h-8.876z"/></g><path data-name="Rectangle 53" fill="#34495e" d="M15.539 0h10.004v2H15.539z"/><path data-name="Path 215" d="M22.415 47.579a1.241 1.241 0 0 1-.369.882 1.213 1.213 0 0 1-.881.367h-1.25a1.253 1.253 0 0 1-1.253-1.249v-5h3.752v5z" fill="#f2f9fd"/><path data-name="Path 216" d="M24.979 42.578 9.593 36.421l.88-2.207 15.388 6.156z" fill="#34495e"/><path data-name="Path 217" d="m9.593 36.421 6.457 6.157h8.929z" fill="#283a4d"/><path data-name="Path 218" d="M10.73 44.415a1.254 1.254 0 0 1-.875.389 1.24 1.24 0 0 1-.891-.348l-.906-.861a1.238 1.238 0 0 1-.39-.873 1.264 1.264 0 0 1 .344-.9l3.452-3.62 2.714 2.587z" fill="#f2f9fd"/><g data-name="Group 114" fill="#34495e"><path data-name="Path 219" d="M48.674 72.497H30.743v-9a3.511 3.511 0 0 1 3.5-3.5h.084a3.506 3.506 0 0 1 2.433.984z"/><path data-name="Path 220" d="M1.75 75.001A1.747 1.747 0 0 0 0 76.748v3.251h6.253a.752.752 0 0 1 .753-.75h42.257a.757.757 0 0 1 .752.75h6.25v-3.251a1.747 1.747 0 0 0-1.747-1.747z"/></g><path data-name="Path 221" d="M53.144 75.002H3.128V73.75a1.254 1.254 0 0 1 1.25-1.252h47.517a1.258 1.258 0 0 1 1.25 1.252v1.252z" fill="#283a4d"/><path data-name="Path 222" d="M35.246 63.496a1 1 0 1 1-1-1 1 1 0 0 1 1 1z" fill="#f2f9fd"/><path data-name="Path 223" d="M32.405 19.77a5.615 5.615 0 1 1-5.614-5.614 5.616 5.616 0 0 1 5.614 5.614z" fill="#34495e"/><path data-name="Path 224" d="M29.158 19.77a2.369 2.369 0 1 1-2.366-2.366 2.365 2.365 0 0 1 2.366 2.366z" fill="#f2f9fd"/></svg>