<svg xmlns="http://www.w3.org/2000/svg" width="185.9" height="30" viewBox="0 0 185.9 30">
  <g id="Group_4543" data-name="Group 4543" transform="translate(-482.1 -399)">
    <g id="Group_4374" data-name="Group 4374" transform="translate(637.48 399)">
      <rect id="Rectangle_436" data-name="Rectangle 436" width="29.997" height="30" transform="translate(0.523)" fill="none"/>
      <g id="Group_4373" data-name="Group 4373" transform="translate(0.42 1.292)">
        <g id="Iconly_Bold_Star" data-name="Iconly/Bold/Star" transform="translate(0)">
          <g id="Star" transform="translate(0)">
            <path id="Star-2" data-name="Star" d="M22.969,17.055a1.588,1.588,0,0,0-.46,1.4l1.283,7.1a1.558,1.558,0,0,1-.649,1.558,1.588,1.588,0,0,1-1.688.115l-6.391-3.333a1.632,1.632,0,0,0-.721-.189h-.391a1.171,1.171,0,0,0-.39.13L7.17,27.184a1.686,1.686,0,0,1-1.024.159,1.6,1.6,0,0,1-1.284-1.834l1.284-7.1A1.615,1.615,0,0,0,5.685,17l-5.21-5.05a1.558,1.558,0,0,1-.388-1.63A1.62,1.62,0,0,1,1.369,9.234L8.54,8.194a1.6,1.6,0,0,0,1.27-.879L12.97.837a1.5,1.5,0,0,1,.289-.39l.13-.1a.969.969,0,0,1,.232-.188L13.778.1l.245-.1h.607A1.614,1.614,0,0,1,15.9.866l3.2,6.45a1.6,1.6,0,0,0,1.2.879l7.171,1.04a1.636,1.636,0,0,1,1.313,1.082,1.567,1.567,0,0,1-.418,1.63Z" fill="#f0b25f"/>
          </g>
        </g>
      </g>
    </g>
    <g id="Group_4539" data-name="Group 4539" transform="translate(598.53 399)">
      <rect id="Rectangle_436-2" data-name="Rectangle 436" width="29.997" height="30" transform="translate(0.523)" fill="none"/>
      <g id="Group_4373-2" data-name="Group 4373" transform="translate(0.42 1.292)">
        <g id="Iconly_Bold_Star-2" data-name="Iconly/Bold/Star" transform="translate(0)">
          <g id="Star-3" data-name="Star" transform="translate(0)">
            <path id="Star-4" data-name="Star" d="M22.969,17.055a1.588,1.588,0,0,0-.46,1.4l1.283,7.1a1.558,1.558,0,0,1-.649,1.558,1.588,1.588,0,0,1-1.688.115l-6.391-3.333a1.632,1.632,0,0,0-.721-.189h-.391a1.171,1.171,0,0,0-.39.13L7.17,27.184a1.686,1.686,0,0,1-1.024.159,1.6,1.6,0,0,1-1.284-1.834l1.284-7.1A1.615,1.615,0,0,0,5.685,17l-5.21-5.05a1.558,1.558,0,0,1-.388-1.63A1.62,1.62,0,0,1,1.369,9.234L8.54,8.194a1.6,1.6,0,0,0,1.27-.879L12.97.837a1.5,1.5,0,0,1,.289-.39l.13-.1a.969.969,0,0,1,.232-.188L13.778.1l.245-.1h.607A1.614,1.614,0,0,1,15.9.866l3.2,6.45a1.6,1.6,0,0,0,1.2.879l7.171,1.04a1.636,1.636,0,0,1,1.313,1.082,1.567,1.567,0,0,1-.418,1.63Z" fill="#f0b25f"/>
          </g>
        </g>
      </g>
    </g>
    <g id="Group_4540" data-name="Group 4540" transform="translate(559.58 399)">
      <rect id="Rectangle_436-3" data-name="Rectangle 436" width="29.997" height="30" transform="translate(0.523)" fill="none"/>
      <g id="Group_4373-3" data-name="Group 4373" transform="translate(0.42 1.292)">
        <g id="Iconly_Bold_Star-3" data-name="Iconly/Bold/Star" transform="translate(0)">
          <g id="Star-5" data-name="Star" transform="translate(0)">
            <path id="Star-6" data-name="Star" d="M22.969,17.055a1.588,1.588,0,0,0-.46,1.4l1.283,7.1a1.558,1.558,0,0,1-.649,1.558,1.588,1.588,0,0,1-1.688.115l-6.391-3.333a1.632,1.632,0,0,0-.721-.189h-.391a1.171,1.171,0,0,0-.39.13L7.17,27.184a1.686,1.686,0,0,1-1.024.159,1.6,1.6,0,0,1-1.284-1.834l1.284-7.1A1.615,1.615,0,0,0,5.685,17l-5.21-5.05a1.558,1.558,0,0,1-.388-1.63A1.62,1.62,0,0,1,1.369,9.234L8.54,8.194a1.6,1.6,0,0,0,1.27-.879L12.97.837a1.5,1.5,0,0,1,.289-.39l.13-.1a.969.969,0,0,1,.232-.188L13.778.1l.245-.1h.607A1.614,1.614,0,0,1,15.9.866l3.2,6.45a1.6,1.6,0,0,0,1.2.879l7.171,1.04a1.636,1.636,0,0,1,1.313,1.082,1.567,1.567,0,0,1-.418,1.63Z" fill="#f0b25f"/>
          </g>
        </g>
      </g>
    </g>
    <g id="Group_4541" data-name="Group 4541" transform="translate(520.63 399)">
      <rect id="Rectangle_436-4" data-name="Rectangle 436" width="29.997" height="30" transform="translate(0.523)" fill="none"/>
      <g id="Group_4373-4" data-name="Group 4373" transform="translate(0.42 1.292)">
        <g id="Iconly_Bold_Star-4" data-name="Iconly/Bold/Star" transform="translate(0)">
          <g id="Star-7" data-name="Star" transform="translate(0)">
            <path id="Star-8" data-name="Star" d="M22.969,17.055a1.588,1.588,0,0,0-.46,1.4l1.283,7.1a1.558,1.558,0,0,1-.649,1.558,1.588,1.588,0,0,1-1.688.115l-6.391-3.333a1.632,1.632,0,0,0-.721-.189h-.391a1.171,1.171,0,0,0-.39.13L7.17,27.184a1.686,1.686,0,0,1-1.024.159,1.6,1.6,0,0,1-1.284-1.834l1.284-7.1A1.615,1.615,0,0,0,5.685,17l-5.21-5.05a1.558,1.558,0,0,1-.388-1.63A1.62,1.62,0,0,1,1.369,9.234L8.54,8.194a1.6,1.6,0,0,0,1.27-.879L12.97.837a1.5,1.5,0,0,1,.289-.39l.13-.1a.969.969,0,0,1,.232-.188L13.778.1l.245-.1h.607A1.614,1.614,0,0,1,15.9.866l3.2,6.45a1.6,1.6,0,0,0,1.2.879l7.171,1.04a1.636,1.636,0,0,1,1.313,1.082,1.567,1.567,0,0,1-.418,1.63Z" fill="#efefef"/>
          </g>
        </g>
      </g>
    </g>
    <g id="Group_4542" data-name="Group 4542" transform="translate(481.68 399)">
      <rect id="Rectangle_436-5" data-name="Rectangle 436" width="29.997" height="30" transform="translate(0.523)" fill="none"/>
      <g id="Group_4373-5" data-name="Group 4373" transform="translate(0.42 1.292)">
        <g id="Iconly_Bold_Star-5" data-name="Iconly/Bold/Star" transform="translate(0)">
          <g id="Star-9" data-name="Star" transform="translate(0)">
            <path id="Star-10" data-name="Star" d="M22.969,17.055a1.588,1.588,0,0,0-.46,1.4l1.283,7.1a1.558,1.558,0,0,1-.649,1.558,1.588,1.588,0,0,1-1.688.115l-6.391-3.333a1.632,1.632,0,0,0-.721-.189h-.391a1.171,1.171,0,0,0-.39.13L7.17,27.184a1.686,1.686,0,0,1-1.024.159,1.6,1.6,0,0,1-1.284-1.834l1.284-7.1A1.615,1.615,0,0,0,5.685,17l-5.21-5.05a1.558,1.558,0,0,1-.388-1.63A1.62,1.62,0,0,1,1.369,9.234L8.54,8.194a1.6,1.6,0,0,0,1.27-.879L12.97.837a1.5,1.5,0,0,1,.289-.39l.13-.1a.969.969,0,0,1,.232-.188L13.778.1l.245-.1h.607A1.614,1.614,0,0,1,15.9.866l3.2,6.45a1.6,1.6,0,0,0,1.2.879l7.171,1.04a1.636,1.636,0,0,1,1.313,1.082,1.567,1.567,0,0,1-.418,1.63Z" fill="#efefef"/>
          </g>
        </g>
      </g>
    </g>
  </g>
</svg>
