<svg xmlns="http://www.w3.org/2000/svg" width="24" height="24" viewBox="0 0 24 24">
  <g id="Group_4374" data-name="Group 4374" transform="translate(-806.216 -1646.486)">
    <rect id="Rectangle_436" data-name="Rectangle 436" width="24" height="24" transform="translate(806.216 1646.486)" fill="none"/>
    <g id="Group_4373" data-name="Group 4373" transform="translate(806.637 1647.486)">
      <g id="Iconly_Bold_Star" data-name="Iconly/Bold/Star">
        <g id="Star">
          <path id="Star-2" data-name="Star" d="M18.431,13.685a1.274,1.274,0,0,0-.369,1.123l1.029,5.7a1.25,1.25,0,0,1-.521,1.25,1.275,1.275,0,0,1-1.355.093l-5.128-2.675a1.309,1.309,0,0,0-.579-.152h-.314a.94.94,0,0,0-.313.1L5.753,21.813a1.353,1.353,0,0,1-.822.127A1.287,1.287,0,0,1,3.9,20.469l1.03-5.7a1.3,1.3,0,0,0-.369-1.134L.381,9.587A1.25,1.25,0,0,1,.069,8.278,1.3,1.3,0,0,1,1.1,7.41l5.754-.835A1.288,1.288,0,0,0,7.872,5.87l2.536-5.2a1.205,1.205,0,0,1,.232-.313l.1-.081A.777.777,0,0,1,10.93.127l.126-.046.2-.081h.487a1.3,1.3,0,0,1,1.019.695L15.328,5.87a1.287,1.287,0,0,0,.961.705l5.754.835a1.312,1.312,0,0,1,1.054.868,1.258,1.258,0,0,1-.336,1.308Z" fill="#f0b25f"/>
        </g>
      </g>
    </g>
  </g>
</svg>
