<svg width="91" height="91" viewBox="0 0 91 91" fill="none" xmlns="http://www.w3.org/2000/svg">
<style>
    #opacity , #check{
        transform-origin: center;
        transform-box: fill-box;
    }
    #check{
        animation: rotation 3s linear infinite;
    }
    #opacity{
        animation: pulsecust 3s linear infinite;
    }
    @keyframes rotation {
        0% {
            transform: rotate(0deg);
        }

        50% {
            transform: rotate(10deg);
        }

        100% {
            transform: rotate(0deg);
        }
    }

    @keyframes pulsecust {
        0% {
            opacity: .4;
            transform: scale(1); 
        }
        50% {
            opacity: 0;
            transform: scale(1.1); 
        }
        100% {
            opacity: .4;
            transform: scale(1); 
        } 
    }
</style>
<g id="success_transition 1">
<g id="Group 4272">
<g id="tick-circle/bulk">
<g id="vuesax/bulk/tick-circle">
<g id="tick-circle">
<g id="circle">
<path id="Vector" opacity="0.4" d="M82.673 45.124C82.673 52.551 80.4706 59.8112 76.3444 65.9864C72.2181 72.1617 66.3533 76.9747 59.4917 79.8168C52.63 82.6589 45.0797 83.4024 37.7954 81.9533C30.5112 80.5042 23.8202 76.9277 18.5687 71.6759C13.3172 66.4241 9.74098 59.7329 8.29229 52.4486C6.8436 45.1643 7.58752 37.614 10.43 30.7525C13.2724 23.891 18.0857 18.0264 24.2612 13.9005C30.4367 9.77459 37.697 7.5726 45.124 7.573C55.0828 7.57353 64.6335 11.53 71.6753 18.5721C78.717 25.6143 82.673 35.1652 82.673 45.124V45.124Z" fill="#BC8B46"/>
<path id="opacity" opacity="0.4" d="M85 45C85 52.9113 82.654 60.645 78.2586 67.223C73.8633 73.801 67.616 78.9279 60.3069 81.9554C52.9977 84.9828 44.9549 85.7748 37.1956 84.2312C29.4363 82.6877 22.309 78.8778 16.715 73.2835C11.121 67.6892 7.31151 60.5617 5.76835 52.8023C4.22518 45.0429 5.01762 37.0002 8.04545 29.6912C11.0733 22.3822 16.2005 16.1352 22.7788 11.7402C29.357 7.34518 37.0908 4.99958 45.0021 5C55.6104 5.00057 65.784 9.21509 73.285 16.7165C80.786 24.2179 85 34.3917 85 45V45Z" fill="#BC8B46"/>
<path id="check" d="M39.747 58.681C39.3741 58.6809 39.005 58.6072 38.6606 58.4643C38.3162 58.3213 38.0034 58.1119 37.74 57.848L27.024 47.131C26.7604 46.8674 26.5514 46.5545 26.4087 46.2102C26.2661 45.8658 26.1927 45.4967 26.1927 45.124C26.1927 44.7513 26.2661 44.3822 26.4087 44.0378C26.5514 43.6935 26.7604 43.3806 27.024 43.117C27.2876 42.8534 27.6005 42.6444 27.9448 42.5017C28.2892 42.3591 28.6583 42.2857 29.031 42.2857C29.4037 42.2857 29.7728 42.3591 30.1172 42.5017C30.4615 42.6444 30.7744 42.8534 31.038 43.117L39.747 51.826L59.21 32.364C59.7423 31.8317 60.4642 31.5327 61.217 31.5327C61.9698 31.5327 62.6917 31.8317 63.224 32.364C63.7563 32.8963 64.0553 33.6182 64.0553 34.371C64.0553 35.1238 63.7563 35.8457 63.224 36.378L41.754 57.848C41.4906 58.1119 41.1778 58.3213 40.8334 58.4643C40.489 58.6072 40.1199 58.6809 39.747 58.681V58.681Z" fill="#BC8B46"/>
</g>
</g>
</g>
</g>
</g>
</g>
</svg>
