<svg xmlns="http://www.w3.org/2000/svg" width="20.764" height="16.208"><path d="M18.63 4.039c.013.177.013.355.013.532A11.782 11.782 0 0 1 6.535 16.208 12.383 12.383 0 0 1 0 14.372a9.155 9.155 0 0 0 1.028.051 8.745 8.745 0 0 0 5.283-1.747A4.246 4.246 0 0 1 2.332 9.84a5.579 5.579 0 0 0 .8.063 4.673 4.673 0 0 0 1.12-.139A4.135 4.135 0 0 1 .843 5.749v-.051a4.418 4.418 0 0 0 1.924.519 4.048 4.048 0 0 1-1.9-3.406 3.939 3.939 0 0 1 .58-2.064 12.265 12.265 0 0 0 8.775 4.28 4.445 4.445 0 0 1-.105-.937A4.173 4.173 0 0 1 14.373 0a4.327 4.327 0 0 1 3.109 1.292 8.588 8.588 0 0 0 2.7-.988 4.113 4.113 0 0 1-1.871 2.254 8.8 8.8 0 0 0 2.451-.633 8.962 8.962 0 0 1-2.132 2.114z" fill="#fff"/></svg>