<svg width="41" height="41" viewBox="0 0 41 41" fill="none" xmlns="http://www.w3.org/2000/svg">
<style>
#rotate,#opacity_1,#opacity_2,#opacity_3{transform-origin:center;transform-box:fill-box}#rotate{animation:rotation 10s linear infinite}#opacity_1,#opacity_2,#opacity_3{animation:opacity 1s linear infinite}@keyframes rotation{0%{transform:rotate(0deg)}100%{transform:rotate(3600deg)}}@keyframes opacity{0%{opacity:1}100%{opacity:.5}}
</style>
<g id="Group 4436 1">
<g id="Group 4436">
<g id="gallery-add/twotone">
<g id="vuesax/twotone/gallery-add">
<g id="gallery-add">
<path id="Vector" opacity="0.4" d="M18.458 13.424C18.458 14.0878 18.2612 14.7366 17.8924 15.2885C17.5236 15.8404 16.9995 16.2705 16.3863 16.5245C15.7731 16.7785 15.0983 16.845 14.4473 16.7155C13.7963 16.586 13.1983 16.2664 12.7289 15.7971C12.2596 15.3277 11.94 14.7297 11.8105 14.0787C11.681 13.4277 11.7475 12.7529 12.0015 12.1397C12.2555 11.5265 12.6856 11.0024 13.2375 10.6336C13.7894 10.2648 14.4382 10.068 15.102 10.068C15.9921 10.068 16.8457 10.4216 17.475 11.051C18.1044 11.6803 18.458 12.5339 18.458 13.424V13.424Z" stroke="#BC8B46" stroke-width="2" stroke-linecap="round" stroke-linejoin="round"/>
<path id="Vector_2" d="M21.814 3.356H15.102C6.712 3.356 3.356 6.712 3.356 15.102V25.17C3.356 33.556 6.712 36.916 15.102 36.916H25.17C33.56 36.916 36.916 33.56 36.916 25.17V16.78" stroke="#BC8B46" stroke-width="2" stroke-linecap="round" stroke-linejoin="round"/>
<g id="rotate" opacity="0.4">
<path id="Vector_3" opacity="0.4" d="M26.428 8.389H35.657" stroke="#BC8B46" stroke-width="2" stroke-linecap="round"/>
<path id="Vector_4" opacity="0.4" d="M31.042 13.004V3.775" stroke="#BC8B46" stroke-width="2" stroke-linecap="round"/>
</g>
<path id="Vector_5" opacity="0.4" d="M4.48 31.798L12.753 26.244C13.422 25.8115 14.2106 25.6013 15.0061 25.6435C15.8016 25.6857 16.5635 25.9781 17.183 26.479L17.737 26.966C18.4049 27.5114 19.2407 27.8092 20.103 27.8092C20.9653 27.8092 21.8011 27.5114 22.469 26.966L29.449 20.976C30.1169 20.4307 30.9527 20.1328 31.815 20.1328C32.6773 20.1328 33.5131 20.4307 34.181 20.976L36.916 23.325" stroke="#BC8B46" stroke-width="2" stroke-linecap="round" stroke-linejoin="round"/>
</g>
</g>
</g>
</g>
</g>
</svg>
