<svg xmlns="http://www.w3.org/2000/svg" width="18.667" height="25.75"><path data-name="Path 24" d="M0 25.75a9.58 9.58 0 0 1 9.333-9.81 9.58 9.58 0 0 1 9.333 9.81zm10.5-7.255v4.8h5.436a12.288 12.288 0 0 0-5.436-4.8zm-2.333 4.8v-4.8a7.115 7.115 0 0 0-5.435 4.8zm1.167-8.583a7.183 7.183 0 0 1-7-7.357 7.183 7.183 0 0 1 7-7.357 7.183 7.183 0 0 1 7 7.357 7.183 7.183 0 0 1-7.001 7.359zm0-2.452A4.789 4.789 0 0 0 14 7.357a4.789 4.789 0 0 0-4.667-4.9 4.789 4.789 0 0 0-4.667 4.9 4.789 4.789 0 0 0 4.667 4.905z" fill="#bc8b46"/></svg>